<?xml version="1.0" encoding="UTF-8"?>
<svg version="1.1" xmlns="http://www.w3.org/2000/svg" width="444" height="296">
<path d="M0 0 C146.52 0 293.04 0 444 0 C444 97.68 444 195.36 444 296 C297.48 296 150.96 296 0 296 C0 198.32 0 100.64 0 0 Z " fill="#FEFEFE" transform="translate(0,0)"/>
<path d="M0 0 C1.01513672 -0.00483398 1.01513672 -0.00483398 2.05078125 -0.00976562 C5.73473014 0.03019832 7.36207954 0.22055303 10.5 2.3125 C10.79641566 5.15523385 10.89539371 7.78054205 10.86749268 10.62585449 C10.87239594 11.93099605 10.87239594 11.93099605 10.87739825 13.2625041 C10.88471564 16.19535918 10.87048691 19.12772184 10.85644531 22.06054688 C10.85723567 24.15609319 10.85933132 26.25163937 10.86264038 28.34718323 C10.86778885 34.05163205 10.85421021 39.75590149 10.83711338 45.46032143 C10.82211608 51.41848957 10.82325232 57.37665501 10.82244873 63.33483887 C10.81875221 73.34223508 10.80376557 83.34956286 10.78125 93.35693359 C10.75237618 106.2168336 10.74202752 119.07667846 10.7375679 131.93660736 C10.73359223 142.97255443 10.72108903 154.00848943 10.70722103 165.04442787 C10.70311614 168.60143125 10.7001935 172.1584342 10.69742584 175.71543884 C10.69254256 181.29676397 10.68235561 186.87805542 10.66798782 192.45936394 C10.66345425 194.51292047 10.66062367 196.56648153 10.65958023 198.6200428 C10.65784213 201.41311118 10.64997936 204.20609449 10.64044189 206.99914551 C10.64130838 207.82072757 10.64217486 208.64230964 10.6430676 209.48878813 C10.61420765 215.08408469 10.61420765 215.08408469 9.5 217.3125 C13.79 217.3125 18.08 217.3125 22.5 217.3125 C22.17 216.3225 21.84 215.3325 21.5 214.3125 C21.38841033 211.63629156 21.33234624 208.98543196 21.32299805 206.30859375 C21.31642685 205.49367462 21.30985565 204.67875549 21.30308533 203.83914185 C21.2833748 201.14276031 21.27169761 198.44643428 21.26171875 195.75 C21.25560546 194.36964066 21.25560546 194.36964066 21.24936867 192.96139526 C21.22852216 188.09503402 21.21421168 183.22870091 21.20483398 178.36230469 C21.19374445 173.32806412 21.15931146 168.29426253 21.11966228 163.26017761 C21.09357269 159.39464472 21.08514922 155.52921794 21.08155251 151.66360474 C21.07667032 149.80719014 21.06501021 147.95078078 21.04651451 146.0944519 C21.02227487 143.50141037 21.02305932 140.90952537 21.0300293 138.31640625 C21.01081421 137.16146164 21.01081421 137.16146164 20.99121094 135.98318481 C21.04210882 130.80400258 21.04210882 130.80400258 23.33821106 128.33935547 C26.2899266 126.93728278 28.67840165 126.87876774 31.9375 126.875 C33.04996094 126.85566406 34.16242188 126.83632812 35.30859375 126.81640625 C39.17361152 127.41721073 40.81227375 128.5021585 43.5 131.3125 C44.40657821 134.05727823 44.35364694 136.38543881 44.5 139.3125 C44.83 138.82394531 45.16 138.33539063 45.5 137.83203125 C48.57220629 135.49787452 51.80317349 135.91777521 55.5 136 C56.22445312 135.99677734 56.94890625 135.99355469 57.6953125 135.99023438 C61.4807029 136.02864701 63.28295894 136.16780596 66.5 138.3125 C66.79738278 140.78040727 66.89933488 142.9984327 66.87231445 145.46850586 C66.87596512 146.2052504 66.87961578 146.94199493 66.88337708 147.70106506 C66.89150176 150.14339041 66.87785581 152.58505618 66.86328125 155.02734375 C66.86276282 156.72123718 66.86327987 158.41513122 66.86479187 160.10902405 C66.86470206 163.66253621 66.8542554 167.21582192 66.83618164 170.76928711 C66.81351137 175.32702887 66.81294626 179.88443905 66.81969929 184.44222164 C66.82303937 187.94148206 66.81640815 191.44066674 66.80657005 194.9399128 C66.80271715 196.62045457 66.80157021 198.30100477 66.8031559 199.98155022 C66.80352633 202.33023016 66.79091232 204.67848365 66.7746582 207.02709961 C66.77713562 207.72382782 66.77961304 208.42055603 66.78216553 209.13839722 C66.7421268 212.7592699 66.56971828 214.20792258 64.5 217.3125 C69.12 217.3125 73.74 217.3125 78.5 217.3125 C78.17 216.6525 77.84 215.9925 77.5 215.3125 C77.37854007 213.48212713 77.32456815 211.64685867 77.3125 209.8125 C77.29832031 208.8328125 77.28414062 207.853125 77.26953125 206.84375 C77.5 204.3125 77.5 204.3125 79.5 202.3125 C82.17416144 202.05977705 84.70005242 201.94223442 87.375 201.9375 C88.09558594 201.91300781 88.81617188 201.88851562 89.55859375 201.86328125 C93.15706969 201.84340017 95.02007021 201.87757998 97.73876953 204.34130859 C98.31997559 204.99180176 98.90118164 205.64229492 99.5 206.3125 C99.50586624 205.72812164 99.51173248 205.14374329 99.51777649 204.54165649 C99.58157194 198.47471292 99.66595454 192.40830667 99.76245117 186.34179688 C99.79576336 184.07591829 99.82377545 181.80995546 99.84643555 179.54394531 C99.87986593 176.2919515 99.93217562 173.04073415 99.98828125 169.7890625 C99.99467117 168.77131744 100.0010611 167.75357239 100.00764465 166.70498657 C100.03733589 165.29375015 100.03733589 165.29375015 100.06762695 163.85400391 C100.08428154 162.60824081 100.08428154 162.60824081 100.10127258 161.33731079 C100.29864265 160.33502945 100.29864265 160.33502945 100.5 159.3125 C104.25013415 156.81241057 107.22511906 157.01648004 111.5625 157.0625 C112.29533203 157.05476562 113.02816406 157.04703125 113.78320312 157.0390625 C119.24663018 157.05913018 119.24663018 157.05913018 121.5 159.3125 C121.74723816 161.66552734 121.74723816 161.66552734 121.74291992 164.6484375 C121.74599655 165.76299316 121.74907318 166.87754883 121.75224304 168.02587891 C121.74146477 169.83838135 121.74146477 169.83838135 121.73046875 171.6875 C121.73001053 172.92290527 121.72955231 174.15831055 121.7290802 175.43115234 C121.72527837 178.71842229 121.71225908 182.00550012 121.69561768 185.29272461 C121.68217325 188.63786066 121.6853418 191.98296285 121.68554688 195.328125 C121.68063102 197.86458534 121.67480241 200.4010441 121.66796875 202.9375 C121.66685593 204.14583496 121.6657431 205.35416992 121.66459656 206.59912109 C121.65821671 207.71367676 121.65183685 208.82823242 121.64526367 209.9765625 C121.64145187 210.96092285 121.63764008 211.9452832 121.63371277 212.95947266 C121.5 215.3125 121.5 215.3125 120.5 217.3125 C124.79 217.3125 129.08 217.3125 133.5 217.3125 C133.49555878 215.40014557 133.49111755 213.48779114 133.48654175 211.51748657 C133.44607761 193.53498503 133.41593514 175.55249266 133.39637566 157.56995583 C133.38605209 148.3239624 133.37197119 139.0780029 133.34912109 129.83203125 C133.32922021 121.77559365 133.31629143 113.71918062 133.31182301 105.66271913 C133.30921002 101.3947606 133.30304607 97.12687236 133.28853989 92.85893631 C133.27500805 88.84530998 133.27076839 84.83178319 133.27378464 80.81813622 C133.27323249 79.34186831 133.26922891 77.86559722 133.26158905 76.38934898 C133.2516971 74.38008379 133.25520903 72.3707657 133.25949097 70.36148071 C133.25672559 68.67183417 133.25672559 68.67183417 133.25390434 66.94805336 C133.5 64.3125 133.5 64.3125 135.5 62.3125 C138.02475716 62.11356201 140.41514749 62.03402565 142.9375 62.0625 C143.61876953 62.05476563 144.30003906 62.04703125 145.00195312 62.0390625 C148.71409442 62.05360566 150.33589372 62.20309582 153.5 64.3125 C153.8719368 66.91123199 153.8719368 66.91123199 153.86749268 70.27209473 C153.87306183 71.542491 153.87863098 72.81288727 153.8843689 74.1217804 C153.87534555 75.53756898 153.86602774 76.95335571 153.85644531 78.36914062 C153.8572358 79.85385763 153.85933189 81.33857443 153.86264038 82.82328796 C153.86778575 86.86252937 153.85421652 90.90151712 153.83711338 94.9407177 C153.82210753 99.16119658 153.82325212 103.38167176 153.82244873 107.60217285 C153.81875306 114.69071804 153.80377082 121.77916657 153.78125 128.86767578 C153.75237644 137.97446152 153.74202732 147.08116937 153.7375679 156.18799591 C153.7335911 164.00609227 153.7210882 171.8241716 153.70722103 179.64225578 C153.70311775 182.16069882 153.70019429 184.67914124 153.69742584 187.19758606 C153.6925396 191.1504988 153.68234763 195.1033641 153.66798782 199.05625343 C153.66345746 200.50993738 153.66062442 201.96362771 153.65958023 203.41731834 C153.6578398 205.39585684 153.64933489 207.374386 153.64044189 209.35290527 C153.63746723 210.46198997 153.63449257 211.57107468 153.63142776 212.71376801 C153.5 215.3125 153.5 215.3125 152.5 217.3125 C153.325 217.15007812 154.15 216.98765625 155 216.8203125 C158.85528561 216.26095186 162.61516428 216.16263989 166.5 216.1875 C167.23532959 216.18943359 167.97065918 216.19136719 168.72827148 216.19335938 C175.67978584 216.24724128 182.57506437 216.69792568 189.5 217.3125 C189.17 216.6525 188.84 215.9925 188.5 215.3125 C188.4009587 213.69755227 188.36494211 212.07855946 188.35955811 210.46058655 C188.35384796 209.4356459 188.34813782 208.41070526 188.34225464 207.35470581 C188.34113678 206.2258194 188.34001892 205.09693298 188.33886719 203.93383789 C188.33390228 202.74842911 188.32893738 201.56302032 188.32382202 200.34169006 C188.31170191 197.08550675 188.30425246 193.82935936 188.29981136 190.57315755 C188.29688182 188.53988761 188.29277728 186.50662334 188.28830719 184.47335625 C188.27463223 178.11471363 188.26496511 171.75608392 188.2611053 165.39742762 C188.25662191 158.05146092 188.23906117 150.70568006 188.2101047 143.35976988 C188.18851005 137.68499113 188.17840224 132.01026476 188.17706418 126.33544534 C188.17601471 122.94437836 188.17007693 119.55348605 188.15224457 116.16246223 C188.13526764 112.38168211 188.13704389 108.60135897 188.14355469 104.82055664 C188.1343399 103.69369446 188.12512512 102.56683228 188.1156311 101.40582275 C188.12398483 99.86418205 188.12398483 99.86418205 188.13250732 98.29139709 C188.13104076 97.39709016 188.1295742 96.50278322 188.1280632 95.58137608 C188.58010342 92.82385588 189.25369773 91.93732166 191.5 90.3125 C194.71484375 89.9140625 194.71484375 89.9140625 198.4375 89.9375 C199.66339844 89.92976563 200.88929688 89.92203125 202.15234375 89.9140625 C205.76960596 90.34458846 206.9430965 90.80862307 209.5 93.3125 C209.99498463 95.56296539 209.99498463 95.56296539 209.98774719 98.2467041 C209.99469101 99.26460526 210.00163483 100.28250641 210.00878906 101.33125305 C209.995979 102.44719345 209.98316895 103.56313385 209.9699707 104.71289062 C209.9721611 105.88869186 209.9743515 107.0644931 209.97660828 108.27592468 C209.97852549 111.50131571 209.96260624 114.72602387 209.93850732 117.9513073 C209.91722508 121.3251455 209.91780661 124.69898131 209.91581726 128.07287598 C209.90936767 133.73895144 209.8881138 139.40481118 209.85668945 145.07080078 C209.81640111 152.34462123 209.79900219 159.61830106 209.78938007 166.89221954 C209.78107804 173.14382697 209.76384078 179.39540458 209.74434257 185.64698601 C209.74029347 186.98922068 209.73655393 188.33145632 209.7331202 189.6736927 C209.7218292 194.08655549 209.70166379 198.49930273 209.67700195 202.91210938 C209.67431305 204.02804977 209.67162415 205.14399017 209.66885376 206.29374695 C209.66169846 207.3116481 209.65454315 208.32954926 209.64717102 209.3782959 C209.64289754 210.26392967 209.63862406 211.14956345 209.63422108 212.06203461 C209.5 214.3125 209.5 214.3125 208.5 217.3125 C210.15 217.3125 211.8 217.3125 213.5 217.3125 C213.17 216.6525 212.84 215.9925 212.5 215.3125 C212.37917466 213.64904418 212.3246206 211.98029409 212.3125 210.3125 C212.29832031 209.425625 212.28414063 208.53875 212.26953125 207.625 C212.5 205.3125 212.5 205.3125 214.5 203.3125 C217.02475716 203.11356201 219.41514749 203.03402565 221.9375 203.0625 C222.61876953 203.05476562 223.30003906 203.04703125 224.00195312 203.0390625 C227.71409442 203.05360566 229.33589372 203.20309582 232.5 205.3125 C232.828125 207.625 232.828125 207.625 232.75 210.3125 C232.73453125 211.199375 232.7190625 212.08625 232.703125 213 C232.5 215.3125 232.5 215.3125 231.5 217.3125 C233.81 217.3125 236.12 217.3125 238.5 217.3125 C238.5 217.6425 238.5 217.9725 238.5 218.3125 C229.59 218.3125 220.68 218.3125 211.5 218.3125 C211.5 221.2825 211.5 224.2525 211.5 227.3125 C210.84 227.3125 210.18 227.3125 209.5 227.3125 C209.5 224.3425 209.5 221.3725 209.5 218.3125 C192.01 218.3125 174.52 218.3125 156.5 218.3125 C156.5 221.2825 156.5 224.2525 156.5 227.3125 C155.51 227.3125 154.52 227.3125 153.5 227.3125 C153.5 224.3425 153.5 221.3725 153.5 218.3125 C136.01 218.3125 118.52 218.3125 100.5 218.3125 C100.5 221.2825 100.5 224.2525 100.5 227.3125 C99.84 227.3125 99.18 227.3125 98.5 227.3125 C98.5 224.3425 98.5 221.3725 98.5 218.3125 C81.01 218.3125 63.52 218.3125 45.5 218.3125 C45.5 221.2825 45.5 224.2525 45.5 227.3125 C44.51 226.9825 43.52 226.6525 42.5 226.3125 C42.5 223.6725 42.5 221.0325 42.5 218.3125 C25.01 218.3125 7.52 218.3125 -10.5 218.3125 C-10.5 221.2825 -10.5 224.2525 -10.5 227.3125 C-11.16 227.3125 -11.82 227.3125 -12.5 227.3125 C-12.5 224.3425 -12.5 221.3725 -12.5 218.3125 C-29.99 218.3125 -47.48 218.3125 -65.5 218.3125 C-65.5 221.2825 -65.5 224.2525 -65.5 227.3125 C-66.16 227.3125 -66.82 227.3125 -67.5 227.3125 C-67.5 224.3425 -67.5 221.3725 -67.5 218.3125 C-85.32 218.3125 -103.14 218.3125 -121.5 218.3125 C-121.5 221.2825 -121.5 224.2525 -121.5 227.3125 C-122.16 227.3125 -122.82 227.3125 -123.5 227.3125 C-123.5 224.3425 -123.5 221.3725 -123.5 218.3125 C-133.73 218.3125 -143.96 218.3125 -154.5 218.3125 C-154.5 217.9825 -154.5 217.6525 -154.5 217.3125 C-150.87 216.9825 -147.24 216.6525 -143.5 216.3125 C-143.83 215.9825 -144.16 215.6525 -144.5 215.3125 C-144.60869699 213.81947527 -144.64902922 212.3213902 -144.66113281 210.82446289 C-144.67074036 209.86999771 -144.6803479 208.91553253 -144.69024658 207.93214417 C-144.69449646 206.89363815 -144.69874634 205.85513214 -144.703125 204.78515625 C-144.70882507 203.72590439 -144.71452515 202.66665253 -144.72039795 201.57530212 C-144.72986365 199.32991541 -144.73638813 197.0845147 -144.74023438 194.83911133 C-144.74994884 191.39314731 -144.78096153 187.94777721 -144.8125 184.50195312 C-144.8190287 182.32552439 -144.82427969 180.14909138 -144.828125 177.97265625 C-144.8404718 176.93617447 -144.8528186 175.89969269 -144.86553955 174.83180237 C-144.8610379 173.39537636 -144.8610379 173.39537636 -144.85644531 171.92993164 C-144.86009094 171.08467422 -144.86373657 170.23941681 -144.86749268 169.36854553 C-144.6855838 168.35080299 -144.6855838 168.35080299 -144.5 167.3125 C-140.88536441 164.90274294 -138.1778074 164.98010568 -134 165 C-133.32324219 164.98388672 -132.64648438 164.96777344 -131.94921875 164.95117188 C-126.99995626 164.94629095 -126.99995626 164.94629095 -124.80647278 166.55297852 C-123.14308216 168.79318709 -123.12550692 170.05397724 -123.12768555 172.828125 C-123.11834236 174.19469238 -123.11834236 174.19469238 -123.10881042 175.58886719 C-123.11802017 176.57016602 -123.12722992 177.55146484 -123.13671875 178.5625 C-123.13622025 179.5721582 -123.13572174 180.58181641 -123.13520813 181.62207031 C-123.13754908 183.75718147 -123.1472788 185.89229537 -123.16381836 188.02734375 C-123.18740794 191.29972959 -123.18437969 194.57130077 -123.17773438 197.84375 C-123.18331116 199.91667154 -123.19042104 201.98958963 -123.19921875 204.0625 C-123.19785164 205.53444824 -123.19785164 205.53444824 -123.19645691 207.03613281 C-123.20598892 207.94717773 -123.21552094 208.85822266 -123.2253418 209.796875 C-123.22994919 210.59834961 -123.23455658 211.39982422 -123.23930359 212.22558594 C-123.5 214.3125 -123.5 214.3125 -125.5 217.3125 C-123.52 217.3125 -121.54 217.3125 -119.5 217.3125 C-120.16 216.3225 -120.82 215.3325 -121.5 214.3125 C-121.69573292 211.60853272 -121.77388123 209.00759337 -121.76069641 206.30322266 C-121.76643473 205.06523643 -121.76643473 205.06523643 -121.77228898 203.80224037 C-121.78263694 201.02695028 -121.77862346 198.25186639 -121.7746582 195.4765625 C-121.77900365 193.49086312 -121.78418623 191.50516541 -121.79014587 189.51947021 C-121.80356418 184.11877341 -121.80411147 178.71814645 -121.80158257 173.31743622 C-121.80051492 168.8141479 -121.80539087 164.31087385 -121.810188 159.80758858 C-121.82129267 149.18747014 -121.82171498 138.56738707 -121.81567383 127.94726562 C-121.80963012 116.97784573 -121.82195297 106.00855398 -121.8432439 95.03915596 C-121.86083388 85.63189944 -121.86686543 76.2246838 -121.86360615 66.81741142 C-121.86178922 61.1940958 -121.86447036 55.5708716 -121.87832069 49.9475708 C-121.89085237 44.66165745 -121.8889993 39.37594459 -121.87590981 34.09003448 C-121.87353439 32.14654728 -121.876313 30.20304616 -121.88453293 28.25957489 C-121.89492069 25.61340636 -121.88696449 22.96792057 -121.8742218 20.32177734 C-121.88159609 19.54659067 -121.88897037 18.771404 -121.89656812 17.97272682 C-121.84424125 12.83360076 -121.84424125 12.83360076 -120.19340801 10.33462524 C-117.33281885 8.60800037 -114.23550983 8.92296405 -111 9 C-109.98486328 8.99516602 -109.98486328 8.99516602 -108.94921875 8.99023438 C-105.26526986 9.03019832 -103.63792046 9.22055303 -100.5 11.3125 C-100.20345341 14.02974448 -100.10448672 16.51968261 -100.13250732 19.23948669 C-100.12923848 20.06803998 -100.12596964 20.89659326 -100.12260175 21.75025421 C-100.11528543 24.5425888 -100.12951202 27.33440598 -100.14355469 30.12670898 C-100.14276431 32.12211191 -100.14066859 34.1175147 -100.13735962 36.11291504 C-100.13221132 41.54471592 -100.14578987 46.97632839 -100.16288662 52.40809894 C-100.17788646 58.0828575 -100.17674775 63.75761324 -100.17755127 69.43238831 C-100.18124784 78.9648054 -100.19623397 88.49715066 -100.21875 98.02954102 C-100.24761509 110.2750333 -100.25797179 122.52046765 -100.2624321 134.76599026 C-100.26640957 145.27835401 -100.2789131 155.79070511 -100.29277897 166.30305982 C-100.29688187 169.68926226 -100.29980555 173.07546425 -100.30257416 176.46166801 C-100.30746175 181.77788646 -100.31765607 187.09406965 -100.33201218 192.41027069 C-100.3365413 194.36504104 -100.33937529 196.31981613 -100.34041977 198.27459145 C-100.34216115 200.93593979 -100.35003273 203.59719946 -100.35955811 206.25852966 C-100.35869162 207.0382894 -100.35782514 207.81804914 -100.3569324 208.62143797 C-100.37401167 211.78669192 -100.49139928 214.28669784 -101.5 217.3125 C-96.88 217.3125 -92.26 217.3125 -87.5 217.3125 C-88.16 216.3225 -88.82 215.3325 -89.5 214.3125 C-89.75447559 211.9058609 -89.75447559 211.9058609 -89.76069641 208.99865723 C-89.76778122 207.89661453 -89.77486603 206.79457184 -89.78216553 205.65913391 C-89.77968811 204.44968613 -89.77721069 203.24023834 -89.7746582 201.99414062 C-89.77976913 200.72080368 -89.78488007 199.44746674 -89.79014587 198.13554382 C-89.803547 194.64180067 -89.80411341 191.14816563 -89.80158257 187.65440178 C-89.80051379 184.7392351 -89.80539376 181.82409038 -89.810188 178.90892839 C-89.82128666 172.03318169 -89.82171833 165.15748961 -89.81567383 158.28173828 C-89.80963027 151.18403289 -89.8219538 144.08652553 -89.8432439 136.98885393 C-89.86084367 130.89791361 -89.86686391 124.80703643 -89.86360615 118.71607161 C-89.86179082 115.07687973 -89.86445435 111.43782918 -89.87832069 107.79866028 C-89.89319715 103.7425952 -89.88394325 99.686935 -89.87231445 95.63085938 C-89.87995819 94.42141159 -89.88760193 93.21196381 -89.89547729 91.96586609 C-89.88846298 90.86382339 -89.88144867 89.7617807 -89.8742218 88.62634277 C-89.87438954 87.66696556 -89.87455729 86.70758835 -89.87473011 85.7191391 C-89.5 83.3125 -89.5 83.3125 -88.19121075 81.50528717 C-85.40766137 79.54208892 -82.33892267 79.88095579 -79.0625 79.9375 C-77.74378906 79.92976563 -76.42507812 79.92203125 -75.06640625 79.9140625 C-71.3256146 80.33198227 -70.2900738 80.99657392 -67.5 83.3125 C-67.49635437 82.45694519 -67.49270874 81.60139038 -67.48895264 80.71990967 C-67.45108358 72.65647627 -67.3942435 64.59344779 -67.31609726 56.53030014 C-67.27659032 52.38493009 -67.24441785 48.23977348 -67.22900391 44.09423828 C-67.21385815 40.09339877 -67.17945067 36.09314591 -67.13169098 32.09256744 C-67.1168555 30.5664098 -67.10895774 29.04016842 -67.10811615 27.5139389 C-67.10575105 25.37551864 -67.07871322 23.23872574 -67.04589844 21.10058594 C-67.03257477 19.27524323 -67.03257477 19.27524323 -67.01898193 17.4130249 C-66.40015748 13.7160164 -65.48467026 12.51950105 -62.5 10.3125 C-59.1875 9.81640625 -59.1875 9.81640625 -55.5 9.875 C-53.6746875 9.87693359 -53.6746875 9.87693359 -51.8125 9.87890625 C-48.1643816 10.35643118 -46.97353625 10.63928513 -44.5 13.3125 C-44.10358017 16.09971059 -43.96832474 18.49475587 -44.00552368 21.28381348 C-44.00069485 22.10505408 -43.99586602 22.92629468 -43.99089086 23.77242136 C-43.97958685 26.53414786 -43.9969637 29.29495519 -44.01416016 32.05664062 C-44.01201511 34.03248852 -44.00813863 36.00833519 -44.00265503 37.98417664 C-43.99294236 43.35811968 -44.008289 48.73173168 -44.02856112 54.10563469 C-44.04609726 59.72166457 -44.04260771 65.33768368 -44.0418396 70.95373535 C-44.04371406 80.38604285 -44.06109756 89.81822185 -44.08837891 99.25048828 C-44.11983123 110.16535951 -44.13037518 121.08008995 -44.1289078 131.99500322 C-44.1276882 142.48205557 -44.13789032 152.96906192 -44.15449142 163.45610046 C-44.16156381 167.92494567 -44.16521888 172.39377459 -44.16627884 176.86262512 C-44.16828409 182.12225839 -44.18046406 187.38177287 -44.20061111 192.64136696 C-44.20646575 194.57517075 -44.20891091 196.50898821 -44.20775604 198.44280052 C-44.20677847 201.07572322 -44.21804783 203.70831044 -44.23257446 206.34118652 C-44.22947726 207.11248225 -44.22638005 207.88377797 -44.223189 208.67844629 C-44.25757952 212.43424665 -44.36239509 214.10609263 -46.5 217.3125 C-41.88 216.9825 -37.26 216.6525 -32.5 216.3125 C-32.83 215.9825 -33.16 215.6525 -33.5 215.3125 C-33.60125838 213.21616857 -33.63077808 211.11636686 -33.63371277 209.01759338 C-33.63597833 208.35253106 -33.63824388 207.68746873 -33.64057809 207.002253 C-33.64694521 204.75742546 -33.646087 202.51265787 -33.64526367 200.26782227 C-33.64825347 198.66502809 -33.65165558 197.06223463 -33.65544128 195.45944214 C-33.66430365 191.09379999 -33.66662033 186.72817741 -33.66725707 182.36252713 C-33.6682043 178.72414279 -33.67188043 175.08576306 -33.67542917 171.44738048 C-33.68358221 162.86685481 -33.68601262 154.28633964 -33.68530273 145.70581055 C-33.68470169 136.840447 -33.69525682 127.97514426 -33.7110464 119.10979611 C-33.72410089 111.51065392 -33.72948751 103.91153166 -33.72884732 96.31237835 C-33.72859172 91.76834062 -33.731477 87.22435689 -33.74202538 82.68033028 C-33.75167131 78.40813848 -33.75180979 74.13605269 -33.74450874 69.86385727 C-33.74345852 68.29245157 -33.74585154 66.72103938 -33.7518692 65.14964485 C-33.75953073 63.01109997 -33.75498365 60.87292653 -33.74723816 58.73439026 C-33.74778293 57.53551461 -33.74832769 56.33663897 -33.74888897 55.10143375 C-33.5 52.3125 -33.5 52.3125 -31.5 50.3125 C-28.81139384 50.1135607 -26.24894817 50.03414699 -23.5625 50.0625 C-22.83353516 50.05476563 -22.10457031 50.04703125 -21.35351562 50.0390625 C-17.54161777 50.05303829 -15.7418889 50.15124073 -12.5 52.3125 C-12.12526989 55.08022976 -12.12526989 55.08022976 -12.1257782 58.68296814 C-12.12180379 59.34409577 -12.11782939 60.00522341 -12.11373454 60.68638521 C-12.10407389 62.91215153 -12.11595174 65.13728815 -12.12768555 67.36303711 C-12.12525879 68.9545058 -12.1215406 70.54597297 -12.11662292 72.13743591 C-12.1071936 76.46804024 -12.11665679 80.79841936 -12.12995505 85.12900615 C-12.14124681 89.65465387 -12.13716376 94.18029012 -12.13520813 98.70594788 C-12.13432434 106.3081532 -12.14542249 113.91026949 -12.16381836 121.51245117 C-12.18497969 130.30795846 -12.18849798 139.1033352 -12.1822564 147.89886278 C-12.17656566 156.35001283 -12.18220547 164.8011168 -12.19342995 173.25226021 C-12.19808056 176.8530824 -12.19894778 180.45387646 -12.1968441 184.05470085 C-12.19496328 188.2940984 -12.20304917 192.53336271 -12.2189045 196.77272987 C-12.22315471 198.33080875 -12.22399296 199.88890114 -12.22121429 201.44698334 C-12.21800228 203.56981888 -12.22704917 205.69225387 -12.23930359 207.81504822 C-12.24238289 209.59896925 -12.24238289 209.59896925 -12.24552441 211.4189291 C-12.5 214.3125 -12.5 214.3125 -14.5 217.3125 C-12.52 217.3125 -10.54 217.3125 -8.5 217.3125 C-9.16 216.3225 -9.82 215.3325 -10.5 214.3125 C-10.6960368 211.49605638 -10.77383643 208.77848315 -10.76069641 205.96154785 C-10.76452196 205.09947173 -10.76834751 204.2373956 -10.77228898 203.34919596 C-10.78263918 200.44953283 -10.77862302 197.55006697 -10.7746582 194.65039062 C-10.77900352 192.5760225 -10.78418606 190.50165598 -10.79014587 188.42729187 C-10.80356553 182.78486804 -10.80411132 177.14251107 -10.80158257 171.50007439 C-10.80051501 166.79547473 -10.80539064 162.09088872 -10.810188 157.38629198 C-10.82129315 146.29153459 -10.82171472 135.19681105 -10.81567383 124.10205078 C-10.80963011 112.64184886 -10.82195291 101.1817696 -10.8432439 89.72158861 C-10.86083311 79.89395376 -10.86686555 70.06635804 -10.86360615 60.23870802 C-10.86178909 54.36388281 -10.86447162 48.48914512 -10.87832069 42.61433411 C-10.89085112 37.09204022 -10.88900049 31.56993825 -10.87590981 26.04764748 C-10.87353411 24.01708221 -10.87631396 21.98650362 -10.88453293 19.9559536 C-10.89491831 17.19156041 -10.8869663 14.42782107 -10.8742218 11.66345215 C-10.88159609 10.85324694 -10.88897037 10.04304173 -10.89656812 9.20828485 C-10.84421854 3.83919222 -10.84421854 3.83919222 -9.19340801 1.31327057 C-6.32471067 -0.3820727 -3.22963274 -0.07689602 0 0 Z " fill="#D1BBD2" transform="translate(193.5,40.6875)"/>
<path d="M0 0 C0.33 0 0.66 0 1 0 C1 8.91 1 17.82 1 27 C75.91 27 150.82 27 228 27 C228 27.33 228 27.66 228 28 C206.55 28.33 185.1 28.66 163 29 C164.98 30.485 164.98 30.485 167 32 C167.50057125 35.14065552 167.50057125 35.14065552 167.50120544 39.09814453 C167.50950704 40.18912288 167.50950704 40.18912288 167.51797634 41.30214119 C167.53161993 43.746043 167.51659448 46.18893005 167.50170898 48.6328125 C167.50549083 50.38206416 167.51098977 52.13131283 167.51808167 53.8805542 C167.53207112 58.63675141 167.52084211 63.39258828 167.50437045 68.14876556 C167.4905453 73.1201762 167.49697713 78.09156537 167.50050354 83.06298828 C167.50320767 91.41249415 167.4897126 99.76185642 167.46655273 108.11132812 C167.43994173 117.77201225 167.43819514 127.43245623 167.4499411 137.09316444 C167.46071084 146.3767365 167.45453813 155.66022148 167.44038582 164.94378662 C167.43461903 168.89908907 167.43471413 172.85432794 167.43945122 176.80963135 C167.44421467 181.46522562 167.43414564 186.12055609 167.41249657 190.77610016 C167.40691988 192.48736939 167.40647145 194.19866392 167.41144943 195.909935 C167.41738089 198.24087039 167.40493926 200.57099341 167.38768005 202.90185547 C167.38403521 204.86081253 167.38403521 204.86081253 167.38031673 206.85934448 C167 210 167 210 164 213 C156.74 213 149.48 213 142 213 C142.495 137.265 142.495 137.265 143 60 C139.40523628 58.80174543 136.11450601 58.85391256 132.375 58.875 C131.68148437 58.87113281 130.98796875 58.86726563 130.2734375 58.86328125 C126.84929579 58.56545834 126.84929579 58.56545834 124 60 C123.89105814 61.9739417 123.85309674 63.95181292 123.84178162 65.9287262 C123.8319928 67.21746643 123.82220398 68.50620667 123.81211853 69.83399963 C123.80621356 71.27548181 123.80040316 72.71696437 123.79467773 74.15844727 C123.78510468 75.66596753 123.77509495 77.17348508 123.76467896 78.68099976 C123.73756169 82.7861642 123.71658919 86.89134021 123.69667697 90.99654508 C123.67485934 95.28205572 123.64745006 99.56753041 123.62062073 103.85301208 C123.57063655 111.97384044 123.52571904 120.0946887 123.48259836 128.21555609 C123.43327481 137.45847428 123.37833863 146.7013564 123.32291877 155.94423974 C123.20901087 174.96279323 123.10239021 193.98138125 123 213 C118.71 213 114.42 213 110 213 C110.00785522 210.37236694 110.00785522 210.37236694 110.01586914 207.69165039 C110.03196762 201.91611499 110.04347267 196.14058037 110.05181217 190.36502934 C110.05703989 186.86191115 110.0641355 183.35881715 110.07543945 179.85571289 C110.08834206 175.83219159 110.09322912 171.80869586 110.09765625 167.78515625 C110.10281754 166.52163834 110.10797882 165.25812042 110.11329651 163.95631409 C110.11340981 162.21462196 110.11340981 162.21462196 110.11352539 160.43774414 C110.115746 159.40960098 110.11796661 158.38145782 110.12025452 157.32215881 C110.26184609 155.0386489 110.26184609 155.0386489 109 154 C106.34346557 153.89997545 103.71870728 153.86122537 101.0625 153.875 C100.32064453 153.87113281 99.57878906 153.86726562 98.81445312 153.86328125 C94.77677122 153.78260332 94.77677122 153.78260332 91 155 C90.67 172.82 90.34 190.64 90 209 C89.67 209 89.34 209 89 209 C88.87882812 208.36191406 88.75765625 207.72382813 88.6328125 207.06640625 C88.46523438 206.24011719 88.29765625 205.41382813 88.125 204.5625 C87.96257812 203.73878906 87.80015625 202.91507813 87.6328125 202.06640625 C87.31957031 201.04353516 87.31957031 201.04353516 87 200 C83.82606311 198.41303156 80.41825795 198.8568553 76.9375 198.875 C76.19177734 198.87113281 75.44605469 198.86726562 74.67773438 198.86328125 C71.04082676 198.52788848 71.04082676 198.52788848 68 200 C67.92741054 202.18639453 67.91626217 204.37500389 67.9375 206.5625 C67.958125 208.686875 67.97875 210.81125 68 213 C63.38 213 58.76 213 54 213 C54.33 212.01 54.66 211.02 55 210 C55.11929387 207.55256014 55.18518708 205.1313213 55.20532227 202.68286133 C55.21522186 201.94115189 55.22512146 201.19944244 55.23532104 200.43525696 C55.26690257 197.98421417 55.29168021 195.533152 55.31640625 193.08203125 C55.33697867 191.38237505 55.35797522 189.68272393 55.37937927 187.983078 C55.4345702 183.50985837 55.48399262 179.03659279 55.53222656 174.56329346 C55.58246332 169.99853426 55.63813804 165.43384177 55.69335938 160.86914062 C55.80090452 151.91281741 55.9023576 142.95643627 56 134 C52.28254693 132.76084898 48.80876619 132.81592287 44.9375 132.8125 C44.20466797 132.80025391 43.47183594 132.78800781 42.71679688 132.77539062 C40.80973493 132.77013701 38.90315114 132.87781728 37 133 C34.21183293 135.78816707 34.69276913 138.37909127 34.68115234 142.11181641 C34.66608391 143.20953117 34.66608391 143.20953117 34.65071106 144.329422 C34.61976764 146.75346068 34.60281326 149.17738838 34.5859375 151.6015625 C34.56723479 153.28023237 34.54766206 154.95889275 34.5272522 156.63754272 C34.47583005 161.05979835 34.43625848 165.48208449 34.39910889 169.90447998 C34.35913226 174.41556407 34.30801108 178.92652013 34.2578125 183.4375 C34.16093393 192.29157686 34.07656751 201.14572584 34 210 C33.67 210 33.34 210 33 210 C32.99453156 208.45024727 32.99453156 208.45024727 32.98895264 206.8691864 C32.9520452 197.14256034 32.89431946 187.41625213 32.81609726 177.68986797 C32.77655229 172.68914648 32.74439838 167.68860293 32.72900391 162.68774414 C32.71388339 157.86350679 32.6795204 153.0397584 32.63169098 148.2157383 C32.61682948 146.37335263 32.60895627 144.53089718 32.60811615 142.68845177 C32.60575899 140.1116736 32.57878238 137.53626063 32.54589844 134.9597168 C32.5509288 134.19439133 32.55595917 133.42906586 32.56114197 132.64054871 C32.49582863 129.34268611 32.45860823 127.49258556 30.16143799 125.02522278 C27.16859896 123.6056462 24.73611728 123.63871499 21.4375 123.6875 C20.30183594 123.69136719 19.16617188 123.69523437 17.99609375 123.69921875 C14.81965216 123.78164457 14.81965216 123.78164457 12 126 C11.71378314 128.81117911 11.62180597 131.40115429 11.65942383 134.21337891 C11.65898575 135.0622316 11.65854767 135.91108429 11.65809631 136.78565979 C11.66019118 139.59952568 11.68355485 142.41280033 11.70703125 145.2265625 C11.71262473 147.17426223 11.716896 149.12196618 11.71989441 151.06967163 C11.73136273 156.20230715 11.76084696 161.334689 11.79400635 166.46722412 C11.82466447 171.70207284 11.83839063 176.93696244 11.85351562 182.171875 C11.88571479 192.44802827 11.93693508 202.72399306 12 213 C7.71 213 3.42 213 -1 213 C-0.505 107.565 -0.505 107.565 0 0 Z " fill="#FCFBFD" transform="translate(204,45)"/>
<path d="M0 0 C39.6 0 79.2 0 120 0 C120 20.13 120 40.26 120 61 C98.55 61 77.1 61 55 61 C55 55.39 55 49.78 55 44 C51.28254693 42.76084898 47.80876619 42.81592287 43.9375 42.8125 C42.83825195 42.79413086 42.83825195 42.79413086 41.71679688 42.77539062 C39.80973493 42.77013701 37.90315114 42.87781728 36 43 C33.21183293 45.78816707 33.69276913 48.37909127 33.68115234 52.11181641 C33.66608391 53.20953117 33.66608391 53.20953117 33.65071106 54.329422 C33.61976764 56.75346068 33.60281326 59.17738838 33.5859375 61.6015625 C33.56723479 63.28023237 33.54766206 64.95889275 33.5272522 66.63754272 C33.47583005 71.05979835 33.43625848 75.48208449 33.39910889 79.90447998 C33.35913226 84.41556407 33.30801108 88.92652013 33.2578125 93.4375 C33.16093393 102.29157686 33.07656751 111.14572584 33 120 C32.67 120 32.34 120 32 120 C31.99453156 118.45024727 31.99453156 118.45024727 31.98895264 116.8691864 C31.9520452 107.14256034 31.89431946 97.41625213 31.81609726 87.68986797 C31.77655229 82.68914648 31.74439838 77.68860293 31.72900391 72.68774414 C31.71388339 67.86350679 31.6795204 63.0397584 31.63169098 58.2157383 C31.61682948 56.37335263 31.60895627 54.53089718 31.60811615 52.68845177 C31.60575899 50.1116736 31.57878238 47.53626063 31.54589844 44.9597168 C31.5509288 44.19439133 31.55595917 43.42906586 31.56114197 42.64054871 C31.49582863 39.34268611 31.45860823 37.49258556 29.16143799 35.02522278 C26.16859896 33.6056462 23.73611728 33.63871499 20.4375 33.6875 C19.30183594 33.69136719 18.16617188 33.69523437 16.99609375 33.69921875 C13.81965216 33.78164457 13.81965216 33.78164457 11 36 C10.71378314 38.81117911 10.62180597 41.40115429 10.65942383 44.21337891 C10.65898575 45.0622316 10.65854767 45.91108429 10.65809631 46.78565979 C10.66019118 49.59952568 10.68355485 52.41280033 10.70703125 55.2265625 C10.71262473 57.17426223 10.716896 59.12196618 10.71989441 61.06967163 C10.73136273 66.20230715 10.76084696 71.334689 10.79400635 76.46722412 C10.82466447 81.70207284 10.83839063 86.93696244 10.85351562 92.171875 C10.88571479 102.44802827 10.93693508 112.72399306 11 123 C6.71 123 2.42 123 -2 123 C-1.67 122.01 -1.34 121.02 -1 120 C-0.89883761 118.36346609 -0.85377461 116.72318613 -0.84178162 115.08357239 C-0.83200759 114.07185628 -0.82223356 113.06014017 -0.81216335 112.017766 C-0.8063931 110.90435683 -0.80062284 109.79094767 -0.79467773 108.64379883 C-0.78464501 107.45397494 -0.77461229 106.26415106 -0.76427555 105.0382719 C-0.73283469 101.17787831 -0.70809627 97.31747448 -0.68359375 93.45703125 C-0.66519547 91.07726706 -0.64635907 88.69750621 -0.6270752 86.31774902 C-0.5585667 77.48270564 -0.49855291 68.64759805 -0.4375 59.8125 C-0.293125 40.074375 -0.14875 20.33625 0 0 Z " fill="#FEFEFE" transform="translate(205,135)"/>
<path d="M0 0 C1.01513672 -0.00483398 1.01513672 -0.00483398 2.05078125 -0.00976562 C5.73473014 0.03019832 7.36207954 0.22055303 10.5 2.3125 C10.7986206 5.15503212 10.89976104 7.78048288 10.8742218 10.62585449 C10.87819621 11.49594886 10.88217061 12.36604323 10.88626546 13.2625041 C10.89593549 16.1953483 10.88404205 19.12771576 10.87231445 22.06054688 C10.87474087 24.15609417 10.87845872 26.2516403 10.88337708 28.34718323 C10.89281029 34.05162401 10.88334024 39.75589395 10.87004495 45.46032143 C10.85875957 51.41849429 10.86283569 57.37665839 10.86479187 63.33483887 C10.86567577 73.3422323 10.85457439 83.34955812 10.83618164 93.35693359 C10.81501257 104.94151473 10.81150357 116.52599676 10.8177436 128.11059332 C10.82343026 139.23569395 10.81779985 150.36075953 10.80657005 161.4858551 C10.80191479 166.22905625 10.80105421 170.97223603 10.8031559 175.71543884 C10.80503393 181.29678873 10.79697239 186.87803718 10.7810955 192.45936394 C10.77683819 194.51291929 10.77601175 196.56648491 10.77878571 198.6200428 C10.78198737 201.4131899 10.77297691 204.20603 10.76069641 206.99914551 C10.76447573 207.82072757 10.76825506 208.64230964 10.77214891 209.48878813 C10.7283288 215.0841712 10.7283288 215.0841712 8.5 217.3125 C5.80837575 217.53802238 3.25330256 217.6368329 0.5625 217.625 C-0.16646484 217.64111328 -0.89542969 217.65722656 -1.64648438 217.67382812 C-6.87483451 217.67862038 -6.87483451 217.67862038 -9.20885658 216.31172943 C-11.28293582 213.10018826 -10.91152805 209.66345018 -10.88095093 205.96154785 C-10.8856309 205.09947173 -10.89031087 204.2373956 -10.89513266 203.34919596 C-10.90713534 200.44943945 -10.89760489 197.55015096 -10.88818359 194.65039062 C-10.89224695 192.57602156 -10.8975875 190.50165465 -10.90411377 188.42729187 C-10.91782119 182.78483234 -10.91247457 177.14253688 -10.90297651 171.50007439 C-10.89539765 165.60376406 -10.90242058 159.70746808 -10.90713501 153.81115723 C-10.91259774 143.908096 -10.90538737 134.00510183 -10.89111328 124.10205078 C-10.87478581 112.64184207 -10.88007395 101.18179345 -10.8965925 89.72158861 C-10.91019262 79.89394778 -10.91213424 70.06635522 -10.90427649 60.23870802 C-10.89959186 54.36389001 -10.89899678 48.48914732 -10.90888596 42.61433411 C-10.9175319 37.09202874 -10.91157715 31.56993041 -10.89420319 26.04764748 C-10.89022564 24.01708635 -10.89139393 21.9865079 -10.89799118 19.9559536 C-10.90614677 17.19154867 -10.89595788 14.42781396 -10.88095093 11.66345215 C-10.88764309 10.85324694 -10.89433526 10.04304173 -10.90123022 9.20828485 C-10.844402 3.83930337 -10.844402 3.83930337 -9.19298744 1.31327057 C-6.32462614 -0.38229521 -3.22942658 -0.07689111 0 0 Z " fill="#2F4DFE" transform="translate(193.5,40.6875)"/>
<path d="M0 0 C1.01513672 -0.00483398 1.01513672 -0.00483398 2.05078125 -0.00976562 C5.73473014 0.03019832 7.36207954 0.22055303 10.5 2.3125 C10.79875003 5.02952918 10.8998705 7.51962428 10.8742218 10.23948669 C10.87819621 11.06803998 10.88217061 11.89659326 10.88626546 12.75025421 C10.89593407 15.54257736 10.88404295 18.33439959 10.87231445 21.12670898 C10.87474093 23.12211293 10.87845885 25.11751567 10.88337708 27.11291504 C10.89280999 32.54470748 10.88334018 37.97632047 10.87004495 43.40809894 C10.85875765 49.08286246 10.86283588 54.75761679 10.86479187 60.43238831 C10.86567578 69.96480249 10.85457477 79.49714569 10.83618164 89.02954102 C10.81501861 100.06083539 10.81150228 111.09202569 10.8177436 122.12333626 C10.82343271 132.7198375 10.81779655 143.31630198 10.80657005 153.91279793 C10.80191744 158.42909485 10.80105309 162.94536934 10.8031559 167.46166801 C10.80503559 172.77791244 10.7969595 178.09405051 10.7810955 183.41027069 C10.77684237 185.3650398 10.77600898 187.31981968 10.77878571 189.27459145 C10.78199343 191.93602204 10.77296137 194.59713204 10.76069641 197.25852966 C10.76447573 198.0382894 10.76825506 198.81804914 10.77214891 199.62143797 C10.74123604 203.39461776 10.64668977 205.09246534 8.5 208.3125 C5.7609515 208.61650756 3.29736367 208.73079599 0.5625 208.6875 C-0.16646484 208.69910156 -0.89542969 208.71070313 -1.64648438 208.72265625 C-6.86361056 208.69396445 -6.86361056 208.69396445 -9.20885658 207.28817749 C-11.24455956 204.17319236 -10.91203491 200.90383408 -10.88095093 197.30322266 C-10.8856309 196.4778985 -10.89031087 195.65257435 -10.89513266 194.80224037 C-10.90713277 192.02685267 -10.89760595 189.25195418 -10.88818359 186.4765625 C-10.89224707 184.49086213 -10.89758768 182.50516402 -10.90411377 180.51947021 C-10.91781982 175.1187361 -10.91247515 169.71817343 -10.90297651 164.31743622 C-10.89539694 158.67337064 -10.90242078 153.02932004 -10.90713501 147.38525391 C-10.91259753 137.90589759 -10.90538792 128.42661132 -10.89111328 118.94726562 C-10.87478585 107.97783863 -10.880074 97.0085789 -10.8965925 86.03915596 C-10.91019322 76.63189318 -10.91213395 67.22468085 -10.90427649 57.81741142 C-10.89959219 52.19410331 -10.89899588 46.5708739 -10.90888596 40.9475708 C-10.91753277 35.66164546 -10.91157558 30.37593639 -10.89420319 25.09003448 C-10.8902261 23.14655161 -10.89139315 21.20305063 -10.89799118 19.25957489 C-10.90614864 16.61339411 -10.89595575 13.96791313 -10.88095093 11.32177734 C-10.88764309 10.54659067 -10.89433526 9.771404 -10.90123022 8.97272682 C-10.84442673 3.83371377 -10.84442673 3.83371377 -9.19298744 1.33462524 C-6.33273894 -0.39222289 -3.23530278 -0.07703102 0 0 Z " fill="#2E4CFE" transform="translate(82.5,49.6875)"/>
<path d="M0 0 C1.22589844 -0.01675781 2.45179688 -0.03351562 3.71484375 -0.05078125 C7.41793917 0.35107158 8.56507666 0.60481467 11.0625 3.3125 C11.46109629 6.09937446 11.59843814 8.49472847 11.56370544 11.28381348 C11.56923984 12.10505408 11.57477424 12.92629468 11.58047634 13.77242136 C11.5941286 16.53413232 11.57908917 19.29494667 11.56420898 22.05664062 C11.5679905 24.03248988 11.57348916 26.00833649 11.58058167 27.98417664 C11.59457534 33.35810811 11.58333904 38.73172083 11.56687045 44.10563469 C11.55304926 49.72167098 11.55947668 55.33768821 11.56300354 60.95373535 C11.56570799 70.38603877 11.55220989 79.8182151 11.52905273 89.25048828 C11.50244157 100.16539033 11.50069505 111.08007985 11.5124411 121.99500322 C11.52320929 132.48206338 11.51703934 142.96904643 11.50288582 153.45610046 C11.49711769 157.92496049 11.49721518 162.39376425 11.50195122 166.86262512 C11.50671321 172.12229842 11.49665161 177.38173812 11.47499657 182.64136696 C11.4694179 184.57517013 11.46897324 186.50899571 11.47394943 188.44280052 C11.47987672 191.07585767 11.46744671 193.70819442 11.45018005 196.34118652 C11.4561901 197.11248225 11.46220014 197.88377797 11.46839231 198.67844629 C11.40719364 203.78527643 11.40719364 203.78527643 9.77093601 206.28800201 C6.76674483 208.08952563 3.39503193 207.70004491 0 207.625 C-0.73283203 207.62822266 -1.46566406 207.63144531 -2.22070312 207.63476562 C-7.67028061 207.57971939 -7.67028061 207.57971939 -9.9375 205.3125 C-10.13733427 202.63404359 -10.21113669 200.05862877 -10.19819641 197.37878418 C-10.20202196 196.54952533 -10.20584751 195.72026649 -10.20978898 194.86587858 C-10.22015479 192.07132958 -10.2161201 189.27698468 -10.2121582 186.48242188 C-10.21650267 184.48539539 -10.22168492 182.48837058 -10.22764587 180.49134827 C-10.24107487 175.05553668 -10.24161028 169.61979445 -10.23908257 164.1839695 C-10.23801562 159.65329852 -10.24288907 155.12264173 -10.247688 150.59197378 C-10.25879641 139.90814758 -10.25921292 129.22435653 -10.25317383 118.54052734 C-10.24713 107.50124016 -10.25945241 96.4620803 -10.2807439 85.42281485 C-10.29832783 75.95954367 -10.30436639 66.49631314 -10.30110615 57.03302622 C-10.29928821 51.37451627 -10.30198021 45.71609716 -10.31582069 40.05760193 C-10.32834257 34.73887429 -10.32650874 29.420346 -10.31340981 24.10162163 C-10.31103221 22.14481478 -10.31382066 20.18799414 -10.32203293 18.23120308 C-10.33240255 15.56930512 -10.32447941 12.90808831 -10.3117218 10.24621582 C-10.31909609 9.46354324 -10.32647037 8.68087066 -10.33406812 7.87448072 C-10.31223011 5.72333527 -10.31223011 5.72333527 -9.9375 2.3125 C-6.28172573 -0.12468285 -4.35080098 0.01369612 0 0 Z " fill="#2F4DFE" transform="translate(137.9375,50.6875)"/>
<path d="M0 0 C1.22589844 -0.01675781 2.45179688 -0.03351563 3.71484375 -0.05078125 C7.39487646 0.34856886 8.54796923 0.66157887 11.0625 3.3125 C11.56307125 6.45315552 11.56307125 6.45315552 11.56370544 10.41064453 C11.56923984 11.13796343 11.57477424 11.86528233 11.58047634 12.61464119 C11.59411993 15.058543 11.57909448 17.50143005 11.56420898 19.9453125 C11.56799083 21.69456416 11.57348977 23.44381283 11.58058167 25.1930542 C11.59457112 29.94925141 11.58334211 34.70508828 11.56687045 39.46126556 C11.5530453 44.4326762 11.55947713 49.40406537 11.56300354 54.37548828 C11.56570767 62.72499415 11.5522126 71.07435642 11.52905273 79.42382812 C11.50244173 89.08451225 11.50069514 98.74495623 11.5124411 108.40566444 C11.52321084 117.6892365 11.51703813 126.97272148 11.50288582 136.25628662 C11.49711903 140.21158907 11.49721413 144.16682794 11.50195122 148.12213135 C11.50671467 152.77772562 11.49664564 157.43305609 11.47499657 162.08860016 C11.46941988 163.79986939 11.46897145 165.51116392 11.47394943 167.222435 C11.47988089 169.55337039 11.46743926 171.88349341 11.45018005 174.21435547 C11.44775016 175.52032684 11.44532026 176.82629822 11.44281673 178.17184448 C11.0625 181.3125 11.0625 181.3125 9.77093601 183.23123169 C6.78874205 185.11866078 3.41412432 184.7418362 0 184.6875 C-0.73283203 184.69910156 -1.46566406 184.71070313 -2.22070312 184.72265625 C-4.34765625 184.7109375 -4.34765625 184.7109375 -7.9375 184.3125 C-10.43062319 180.57281521 -10.19121378 178.64129472 -10.19819641 174.16966248 C-10.20202196 173.43755446 -10.20584751 172.70544644 -10.20978898 171.95115334 C-10.22013013 169.49137025 -10.2161248 167.0318201 -10.2121582 164.57202148 C-10.21650399 162.81129744 -10.22168669 161.05057528 -10.22764587 159.28985596 C-10.24105951 154.50284067 -10.24161207 149.71590421 -10.23908257 144.92887378 C-10.23801476 140.93746808 -10.24289121 136.94607847 -10.247688 132.95467621 C-10.25879073 123.54277001 -10.25921586 114.13090372 -10.25317383 104.71899414 C-10.24712821 94.99582166 -10.25945822 85.27279367 -10.2807439 75.54964584 C-10.29832893 67.21160946 -10.30436628 58.87361921 -10.30110615 50.53556496 C-10.29928866 45.55111486 -10.30197596 40.5667679 -10.31582069 35.58233452 C-10.32834465 30.89804421 -10.32650683 26.21398021 -10.31340981 21.5296936 C-10.3110328 19.80670662 -10.31381861 18.08370398 -10.32203293 16.36073494 C-10.33240753 14.01634076 -10.32447587 11.67271923 -10.3117218 9.32835388 C-10.31188954 8.01408637 -10.31205729 6.69981886 -10.31223011 5.34572506 C-10.18856917 4.34476079 -10.06490824 3.34379652 -9.9375 2.3125 C-6.28172573 -0.12468285 -4.35080098 0.01369612 0 0 Z " fill="#2E4CFE" transform="translate(359.9375,73.6875)"/>
<path d="M0 0 C0.73283203 0.00773437 1.46566406 0.01546875 2.22070312 0.0234375 C2.94966797 0.01570313 3.67863281 0.00796875 4.4296875 0 C8.24158536 0.01397579 10.04131422 0.11217823 13.28320312 2.2734375 C13.66072655 5.04116726 13.66072655 5.04116726 13.66415405 8.64390564 C13.66883402 9.30503327 13.673514 9.96616091 13.67833579 10.64732271 C13.69034675 12.8730746 13.6808053 15.09821765 13.67138672 17.32397461 C13.67544977 18.91544455 13.68079015 20.50691167 13.68731689 22.09837341 C13.70102918 26.42896676 13.69567552 30.75934642 13.68617964 35.08994365 C13.67860191 39.61559689 13.68562351 44.14123144 13.69033813 48.66688538 C13.69580177 56.26908667 13.68858876 63.87120063 13.67431641 71.47338867 C13.65799458 80.26893045 13.66327253 89.06426357 13.67979562 97.85980028 C13.69340021 105.40294303 13.69533501 112.94602289 13.68747962 120.48917395 C13.68279668 124.99803021 13.68219511 129.50678835 13.69208908 134.01563835 C13.70074136 138.25508091 13.69476884 142.49425399 13.67740631 146.73366737 C13.67343188 148.2917473 13.67459181 149.84984983 13.68119431 151.40792084 C13.68936272 153.53091761 13.67914649 155.65304473 13.66415405 157.77598572 C13.66302298 158.96526641 13.6618919 160.1545471 13.66072655 161.3798666 C13.28320312 164.2734375 13.28320312 164.2734375 11.99205971 166.15682316 C9.02730279 168.09407765 5.63997966 167.66151833 2.22070312 167.5859375 C1.48787109 167.58916016 0.75503906 167.59238281 0 167.59570312 C-5.44957749 167.54065689 -5.44957749 167.54065689 -7.71679688 165.2734375 C-7.96847916 162.48729706 -7.96847916 162.48729706 -7.97076416 158.85827637 C-7.97388414 158.19235961 -7.97700412 157.52644286 -7.98021865 156.84034681 C-7.9882257 154.59855386 -7.98186464 152.35702957 -7.97558594 150.11523438 C-7.9782946 148.51229188 -7.98185483 146.90935062 -7.98620605 145.30641174 C-7.99534715 140.94493386 -7.99177875 136.58355029 -7.98544788 132.22207069 C-7.98039677 127.66525639 -7.98507685 123.10845035 -7.98822021 118.55163574 C-7.99186246 110.89817856 -7.987054 103.24475993 -7.97753906 95.59130859 C-7.96665401 86.73330264 -7.97017941 77.87538873 -7.98119187 69.01738501 C-7.9902574 61.4224638 -7.99155363 53.82757037 -7.98631454 46.23264551 C-7.98319078 41.69198249 -7.98279656 37.15136278 -7.98938751 32.61070251 C-7.9951497 28.34259147 -7.99118487 24.07459952 -7.979599 19.80650139 C-7.97694635 18.23671097 -7.97772775 16.6669106 -7.98212433 15.0971241 C-7.98755756 12.96081197 -7.98077318 10.8248859 -7.97076416 8.68859863 C-7.97001011 7.4910218 -7.96925606 6.29344498 -7.96847916 5.05957794 C-7.48884579 -0.24999695 -4.69259821 0.01723636 0 0 Z " fill="#D10505" transform="translate(167.716796875,90.7265625)"/>
<path d="M0 0 C0.68513672 0.00773437 1.37027344 0.01546875 2.07617188 0.0234375 C2.75744141 0.01570313 3.43871094 0.00796875 4.140625 0 C7.8527663 0.01454316 9.4745656 0.16403332 12.63867188 2.2734375 C13.01340199 4.87216949 13.01340199 4.87216949 13.01289368 8.23303223 C13.02341515 10.13862663 13.02341515 10.13862663 13.03414917 12.0827179 C13.02672077 13.4985062 13.0189896 14.91429295 13.01098633 16.33007812 C13.01341317 17.8147965 13.01713143 19.29951325 13.02204895 20.78422546 C13.03147648 24.82345549 13.02201704 28.86244399 13.00871682 32.9016552 C12.997425 37.12214076 13.00150807 41.34261403 13.00346375 45.56311035 C13.00434744 52.65165162 12.99325056 59.74009738 12.97485352 66.82861328 C12.95368471 75.03224831 12.95017555 83.23574339 12.95641547 91.4394002 C12.96210376 99.32031133 12.95646981 107.20117302 12.94524193 115.08207703 C12.94058883 118.44090181 12.93972515 121.79969642 12.94182777 125.15852356 C12.94370695 129.11147126 12.9356355 133.06427586 12.91976738 137.01719093 C12.91551308 138.47087322 12.91468164 139.92456999 12.91745758 141.37825584 C12.92066344 143.35679141 12.91040212 145.33533538 12.89936829 147.31384277 C12.89731542 148.42292747 12.89526255 149.53201218 12.89314747 150.67470551 C12.63867188 153.2734375 12.63867188 153.2734375 10.63867188 155.2734375 C7.92944387 155.47195852 5.34564008 155.55183227 2.63867188 155.5234375 C1.90132813 155.53117188 1.16398437 155.53890625 0.40429688 155.546875 C-5.10800853 155.5267571 -5.10800853 155.5267571 -7.36132812 153.2734375 C-7.61301041 150.67470551 -7.61301041 150.67470551 -7.61529541 147.31384277 C-7.62375488 145.40824837 -7.62375488 145.40824837 -7.63238525 143.4641571 C-7.62849629 142.0483698 -7.62439993 140.63258305 -7.62011719 139.21679688 C-7.62282597 137.73207935 -7.62638627 136.24736316 -7.6307373 134.76264954 C-7.63987699 130.72347296 -7.63631059 126.68439823 -7.62997913 122.6452198 C-7.62492729 118.42473189 -7.62960831 114.20425289 -7.63275146 109.98376465 C-7.6363935 102.89524769 -7.63158581 95.80677236 -7.62207031 88.71826172 C-7.6111853 80.51463214 -7.61471071 72.31110197 -7.62572312 64.1074748 C-7.63478926 57.07305788 -7.63608458 50.03867093 -7.63084579 43.00425005 C-7.62772237 38.79893393 -7.62732689 34.59366458 -7.63391876 30.38835144 C-7.63968184 26.43541481 -7.6357145 22.48260676 -7.62413025 18.52968407 C-7.62147808 17.07599794 -7.62225821 15.62230105 -7.62665558 14.16861916 C-7.63209031 12.19009402 -7.62407859 10.21154533 -7.61529541 8.23303223 C-7.61454136 7.12394753 -7.61378731 6.01486282 -7.61301041 4.87216949 C-7.12768936 -0.13898713 -4.42703225 0.01737795 0 0 Z " fill="#D00202" transform="translate(334.361328125,102.7265625)"/>
<path d="M0 0 C0.67675781 -0.01998047 1.35351562 -0.03996094 2.05078125 -0.06054688 C7.00612441 -0.05565995 7.00612441 -0.05565995 9.19340801 2.12845421 C10.77807616 4.92892394 10.8747825 6.67023089 10.8742218 9.87832642 C10.88474327 11.53562019 10.88474327 11.53562019 10.89547729 13.22639465 C10.88783356 14.43381821 10.88018982 15.64124176 10.87231445 16.88525391 C10.87596512 18.16034317 10.87961578 19.43543243 10.88337708 20.74916077 C10.89277753 24.24284925 10.88336897 27.73625717 10.87004495 31.22992373 C10.85872765 34.88451459 10.86283805 38.53909171 10.86479187 42.19369507 C10.86567454 48.32872096 10.8545984 54.46363628 10.83618164 60.59863281 C10.81499554 67.69691524 10.81150828 74.79503592 10.8177436 81.89334357 C10.82343219 88.71813639 10.8177988 95.54287212 10.80657005 102.36765671 C10.80191927 105.27432687 10.80105225 108.18096217 10.8031559 111.08763504 C10.80538407 115.14135513 10.79095135 119.19484726 10.7746582 123.24853516 C10.77713562 124.46000717 10.77961304 125.67147919 10.78216553 126.91966248 C10.77153831 128.56849678 10.77153831 128.56849678 10.76069641 130.25064087 C10.75864354 131.20964106 10.75659067 132.16864124 10.75447559 133.15670204 C10.5 135.4375 10.5 135.4375 8.5 137.4375 C5.80837575 137.66302238 3.25330256 137.7618329 0.5625 137.75 C-0.16646484 137.76611328 -0.89542969 137.78222656 -1.64648438 137.79882812 C-6.97437557 137.80371162 -6.97437557 137.80371162 -9.20885658 136.2469101 C-10.96770236 133.7820613 -10.87739439 132.14030204 -10.88095093 129.12365723 C-10.89364014 127.47059319 -10.89364014 127.47059319 -10.90658569 125.78413391 C-10.900513 124.57468613 -10.89444031 123.36523834 -10.88818359 122.11914062 C-10.89344055 120.84580368 -10.89869751 119.57246674 -10.90411377 118.26054382 C-10.9178024 114.76674289 -10.91248251 111.27320741 -10.90297651 107.77940178 C-10.89538785 104.12526604 -10.90242331 100.47115322 -10.90713501 96.8170166 C-10.91259489 90.6802156 -10.90539491 84.54352286 -10.89111328 78.40673828 C-10.87478624 71.30902191 -10.88007459 64.21156404 -10.8965925 57.11385393 C-10.9102008 51.02290396 -10.91213027 44.93203187 -10.90427649 38.84107161 C-10.89959633 35.20189138 -10.89898444 31.56283272 -10.90888596 27.92366028 C-10.9191507 23.86757057 -10.90492903 19.81192742 -10.88818359 15.75585938 C-10.89425629 14.54641159 -10.90032898 13.33696381 -10.90658569 12.09086609 C-10.89812622 10.98882339 -10.88966675 9.8867807 -10.88095093 8.75134277 C-10.87981985 7.79196556 -10.87868877 6.83258835 -10.87752342 5.8441391 C-10.5 3.4375 -10.5 3.4375 -9.19298744 1.63248444 C-6.39392538 -0.34321574 -3.29757389 -0.03454601 0 0 Z " fill="#D10707" transform="translate(114.5,120.5625)"/>
<path d="M0 0 C1.22589844 -0.00773438 2.45179688 -0.01546875 3.71484375 -0.0234375 C7.33242245 0.40712613 8.50488798 0.87158543 11.0625 3.375 C11.56307125 5.62546539 11.56307125 5.62546539 11.56370544 8.3092041 C11.57353958 9.32710526 11.58337372 10.34500641 11.59350586 11.39375305 C11.58383789 12.50969345 11.57416992 13.62563385 11.56420898 14.77539062 C11.56961197 15.95119186 11.57501495 17.1269931 11.58058167 18.33842468 C11.59095552 21.56378816 11.58335509 24.78848719 11.56687045 28.0138073 C11.55302895 31.38766788 11.55947899 34.76149726 11.56300354 38.13537598 C11.5657064 43.80143829 11.55222383 49.46728885 11.52905273 55.13330078 C11.50244232 61.68571934 11.5006955 68.23778383 11.5124411 74.7902379 C11.52321725 81.09125839 11.51703316 87.3921507 11.50288582 93.69316101 C11.49712453 96.37573778 11.49720976 99.05822079 11.50195122 101.74079895 C11.5048517 105.48562186 11.48841115 109.2298602 11.46655273 112.97460938 C11.47105438 114.09054977 11.47555603 115.20649017 11.48019409 116.35624695 C11.47028946 117.3741481 11.46038483 118.39204926 11.45018005 119.4407959 C11.44775016 120.32642967 11.44532026 121.21206345 11.44281673 122.12453461 C11.0625 124.375 11.0625 124.375 9.77093601 126.16068268 C6.8472441 128.23877616 3.44875893 127.76373251 0 127.6875 C-1.09924805 127.69233398 -1.09924805 127.69233398 -2.22070312 127.69726562 C-7.67028061 127.64221939 -7.67028061 127.64221939 -9.9375 125.375 C-10.19197559 123.23196507 -10.19197559 123.23196507 -10.19819641 120.52308655 C-10.20528122 119.4981459 -10.21236603 118.47320526 -10.21966553 117.41720581 C-10.21718811 116.2883194 -10.21471069 115.15943298 -10.2121582 113.99633789 C-10.21726913 112.81092911 -10.22238007 111.62552032 -10.22764587 110.40419006 C-10.23918774 107.14796516 -10.24161167 103.8918976 -10.23908257 100.63565755 C-10.23801455 97.91936664 -10.24289192 95.20309935 -10.247688 92.48681349 C-10.2587923 86.07948864 -10.25921551 79.6722224 -10.25317383 73.26489258 C-10.24713297 66.65060203 -10.25944562 60.03652414 -10.2807439 53.42226988 C-10.29834646 47.74748121 -10.30436337 42.07276032 -10.30110615 36.39794534 C-10.29929088 33.0068922 -10.30195341 29.61599072 -10.31582069 26.22496223 C-10.32810555 22.4441586 -10.32144086 18.66385184 -10.30981445 14.88305664 C-10.31745819 13.75619446 -10.32510193 12.62933228 -10.33297729 11.46832275 C-10.32596298 10.44056229 -10.31894867 9.41280182 -10.3117218 8.35389709 C-10.31188954 7.45959016 -10.31205729 6.56528322 -10.31223011 5.64387608 C-9.3438137 -0.21958879 -5.14996407 -0.0324237 0 0 Z " fill="#D10707" transform="translate(391.9375,130.625)"/>
<path d="M0 0 C1.1240625 -0.00773438 2.248125 -0.01546875 3.40625 -0.0234375 C6.93357194 0.43083881 8.09095772 0.78454417 10.5 3.375 C10.89205178 6.17344109 11.02669682 8.57987368 10.98583984 11.37890625 C10.98963654 12.19382538 10.99343323 13.00874451 10.99734497 13.84835815 C11.00476126 16.5451289 10.98335356 19.24082483 10.9609375 21.9375 C10.9585536 23.80932488 10.95764764 25.68115219 10.9581604 27.55297852 C10.95503055 31.477203 10.93845115 35.40106261 10.91162109 39.32519531 C10.87764099 44.35933764 10.86999241 49.39307881 10.87151146 54.42732239 C10.870968 58.29288575 10.86000469 62.15836114 10.84550858 66.02389526 C10.8391371 67.88027277 10.83520086 69.73666025 10.83372116 71.5930481 C10.82939186 74.18590324 10.811899 76.77833036 10.79052734 79.37109375 C10.79143372 80.14105682 10.79234009 80.9110199 10.79327393 81.70431519 C10.74786904 85.46541588 10.63937292 87.16594063 8.5 90.375 C5.7609515 90.67900756 3.29736367 90.79329599 0.5625 90.75 C-0.16646484 90.76160156 -0.89542969 90.77320313 -1.64648438 90.78515625 C-6.86436348 90.75646031 -6.86436348 90.75646031 -9.20741272 89.3503418 C-11.24319111 86.23924965 -10.92509031 82.96936684 -10.90405273 79.37109375 C-10.91091599 78.55617462 -10.91777924 77.74125549 -10.92485046 76.90164185 C-10.94316787 74.20508454 -10.93927439 71.50910623 -10.93359375 68.8125 C-10.93815287 66.94067189 -10.94345763 65.06884546 -10.94947815 63.19702148 C-10.95841872 59.27288007 -10.95597502 55.34894206 -10.94604492 51.42480469 C-10.93454828 46.39049808 -10.95477246 41.35689214 -10.98396206 36.32267761 C-11.00228711 32.45710779 -11.0020391 28.59170707 -10.99632454 24.72610474 C-10.9961709 22.86971045 -11.00225016 21.01330501 -11.01461601 19.1569519 C-11.0294565 16.56381955 -11.0189014 13.97199696 -11.00170898 11.37890625 C-11.01137695 10.60894318 -11.02104492 9.8389801 -11.03100586 9.04568481 C-10.95894626 3.86824101 -10.95894626 3.86824101 -8.66200256 1.3996582 C-5.68945851 -0.00914755 -3.27844253 -0.02255809 0 0 Z " fill="#D10707" transform="translate(225.5,167.625)"/>
<path d="M0 0 C0.73283203 0.00773438 1.46566406 0.01546875 2.22070312 0.0234375 C2.94966797 0.01570312 3.67863281 0.00796875 4.4296875 0 C8.24158536 0.01397579 10.04131422 0.11217823 13.28320312 2.2734375 C13.58587241 4.74084806 13.69285539 6.959158 13.67138672 9.42944336 C13.67664368 10.1661879 13.68190063 10.90293243 13.68731689 11.66200256 C13.70055115 14.10430936 13.69176622 16.54596749 13.68164062 18.98828125 C13.6836606 20.68217596 13.6865714 22.37606982 13.69033813 24.06996155 C13.6947663 27.62346663 13.68831556 31.17674576 13.67431641 34.73022461 C13.65723713 39.28805278 13.66705442 43.84535052 13.6850338 48.40315914 C13.69586956 51.90243024 13.69242605 55.40157542 13.68465042 58.9008503 C13.68264716 60.58139674 13.68511211 62.26195456 13.69208908 63.94248772 C13.69969887 66.2913125 13.68810627 68.63927651 13.67138672 70.98803711 C13.68049576 72.03312943 13.68049576 72.03312943 13.68978882 73.09933472 C13.6527255 75.90646169 13.57545434 77.83663508 11.99160767 80.20387268 C9.00434561 82.07407984 5.63175923 81.70272487 2.22070312 81.6484375 C1.48787109 81.66003906 0.75503906 81.67164063 0 81.68359375 C-2.12695312 81.671875 -2.12695312 81.671875 -5.71679688 81.2734375 C-8.10779846 77.68693513 -7.99964041 75.12773971 -7.97558594 70.98803711 C-7.97909058 70.24954025 -7.98259521 69.5110434 -7.98620605 68.75016785 C-7.99501028 66.3086101 -7.98917953 63.86734195 -7.98242188 61.42578125 C-7.98376876 59.73092086 -7.98570949 58.03606085 -7.98822021 56.34120178 C-7.99116958 52.78952353 -7.98687934 49.23794586 -7.97753906 45.6862793 C-7.96613592 41.12736235 -7.97271059 36.56868065 -7.98468399 32.0097723 C-7.99190025 28.51056638 -7.9896159 25.01141652 -7.98442841 21.51220894 C-7.98309171 19.83083633 -7.98474033 18.14945868 -7.98938751 16.46809196 C-7.9944499 14.12173789 -7.98674723 11.77576866 -7.97558594 9.42944336 C-7.9796344 8.73069092 -7.98368286 8.03193848 -7.987854 7.31201172 C-7.93113211 0.89630935 -6.30031116 0.02314164 0 0 Z " fill="#2F4DFE" transform="translate(246.716796875,176.7265625)"/>
<path d="M0 0 C0.33 0 0.66 0 1 0 C1 29.37 1 58.74 1 89 C40.6 89 80.2 89 121 89 C121 80.09 121 71.18 121 62 C121.66 61.67 122.32 61.34 123 61 C123 111.16 123 161.32 123 213 C118.71 213 114.42 213 110 213 C110.00785522 210.37236694 110.00785522 210.37236694 110.01586914 207.69165039 C110.03196762 201.91611499 110.04347267 196.14058037 110.05181217 190.36502934 C110.05703989 186.86191115 110.0641355 183.35881715 110.07543945 179.85571289 C110.08834206 175.83219159 110.09322912 171.80869586 110.09765625 167.78515625 C110.10281754 166.52163834 110.10797882 165.25812042 110.11329651 163.95631409 C110.11340981 162.21462196 110.11340981 162.21462196 110.11352539 160.43774414 C110.115746 159.40960098 110.11796661 158.38145782 110.12025452 157.32215881 C110.26184609 155.0386489 110.26184609 155.0386489 109 154 C97.22948021 152.80104112 85.32018612 152.72202993 73.5 152.4375 C71.79035772 152.3941501 70.08072223 152.35053164 68.37109375 152.30664062 C64.24746715 152.20134558 60.1237671 152.09963421 56 152 C56 151.67 56 151.34 56 151 C77.45 151 98.9 151 121 151 C121 130.87 121 110.74 121 90 C81.4 90 41.8 90 1 90 C1 129.6 1 169.2 1 210 C0.67 210 0.34 210 0 210 C0 140.7 0 71.4 0 0 Z " fill="#F9F9FD" transform="translate(204,45)"/>
<path d="M0 0 C0.73283203 -0.00773438 1.46566406 -0.01546875 2.22070312 -0.0234375 C7.68413018 -0.00336982 7.68413018 -0.00336982 9.9375 2.25 C10.19819641 4.60302734 10.19819641 4.60302734 10.2121582 7.5859375 C10.22645622 9.257771 10.22645622 9.257771 10.24104309 10.96337891 C10.24013168 12.17171387 10.23922028 13.38004883 10.23828125 14.625 C10.24256638 15.86040527 10.2468515 17.09581055 10.25126648 18.36865234 C10.25849381 21.65590531 10.25537486 24.94297609 10.24969482 28.23022461 C10.2499997 30.24799805 10.26004175 32.26547847 10.27368164 34.28320312 C10.29808083 38.14727696 10.30234049 42.01085901 10.30078125 45.875 C10.309991 47.08333496 10.31920074 48.29166992 10.32868958 49.53662109 C10.32246078 50.65117676 10.31623199 51.76573242 10.30981445 52.9140625 C10.31044388 53.89842285 10.3110733 54.8827832 10.3117218 55.89697266 C10.18822861 56.67347168 10.06473541 57.4499707 9.9375 58.25 C6.31403931 60.66564046 3.62146018 60.54781669 -0.5625 60.5 C-1.23925781 60.50773437 -1.91601562 60.51546875 -2.61328125 60.5234375 C-6.31169257 60.50884811 -7.90853337 60.35264442 -11.0625 58.25 C-11.44345093 55.89697266 -11.44345093 55.89697266 -11.45068359 52.9140625 C-11.46014008 51.79950684 -11.46959656 50.68495117 -11.4793396 49.53662109 C-11.47326691 48.32828613 -11.46719421 47.11995117 -11.4609375 45.875 C-11.46380768 44.63959473 -11.46667786 43.40418945 -11.46963501 42.13134766 C-11.47220423 38.84399722 -11.46010078 35.5570696 -11.44335938 32.26977539 C-11.43750574 30.25197824 -11.44333723 28.23457249 -11.45361328 26.21679688 C-11.47209055 22.35267814 -11.46991494 18.4891425 -11.4609375 14.625 C-11.46701019 13.41666504 -11.47308289 12.20833008 -11.4793396 10.96337891 C-11.46988312 9.84882324 -11.46042664 8.73426758 -11.45068359 7.5859375 C-11.44829681 6.60157715 -11.44591003 5.6172168 -11.44345093 4.60302734 C-11.31773712 3.82652832 -11.19202332 3.0500293 -11.0625 2.25 C-7.31236585 -0.25008943 -4.33738094 -0.04601996 0 0 Z " fill="#2F4DFF" transform="translate(305.0625,197.75)"/>
<path d="M0 0 C0.67675781 -0.01611328 1.35351562 -0.03222656 2.05078125 -0.04882812 C7.00033615 -0.05370934 7.00033615 -0.05370934 9.1925354 1.55297852 C10.85521846 3.79053551 10.87992903 5.05626341 10.88818359 7.828125 C10.90236832 9.19469238 10.90236832 9.19469238 10.9168396 10.58886719 C10.91076691 11.57016602 10.90469421 12.55146484 10.8984375 13.5625 C10.90130768 14.5721582 10.90417786 15.58181641 10.90713501 16.62207031 C10.90917688 18.75716716 10.90363846 20.89228266 10.89111328 23.02734375 C10.87506178 26.29990371 10.89095825 29.57122856 10.91015625 32.84375 C10.90817384 34.9166694 10.90433021 36.98958803 10.8984375 39.0625 C10.90754654 40.53444824 10.90754654 40.53444824 10.9168396 42.03613281 C10.90738312 42.94717773 10.89792664 43.85822266 10.88818359 44.796875 C10.88579681 45.59834961 10.88341003 46.39982422 10.88095093 47.22558594 C10.39925922 49.86437515 9.65657023 50.74660681 7.5 52.3125 C4.72223238 52.58357281 2.20662166 52.68620959 -0.5625 52.625 C-1.66174805 52.62983398 -1.66174805 52.62983398 -2.78320312 52.63476562 C-8.23278061 52.57971939 -8.23278061 52.57971939 -10.5 50.3125 C-10.76069641 48.26318359 -10.76069641 48.26318359 -10.7746582 45.7109375 C-10.78419022 44.75654785 -10.79372223 43.8021582 -10.80354309 42.81884766 C-10.80263168 41.78550293 -10.80172028 40.7521582 -10.80078125 39.6875 C-10.80506638 38.62966309 -10.8093515 37.57182617 -10.81376648 36.48193359 C-10.81951656 34.24252031 -10.82000508 32.00308835 -10.81567383 29.76367188 C-10.81251288 26.32650097 -10.8359687 22.89018945 -10.86132812 19.453125 C-10.86360084 17.28125109 -10.86430474 15.10937486 -10.86328125 12.9375 C-10.872491 11.90415527 -10.88170074 10.87081055 -10.89118958 9.80615234 C-10.88496078 8.8517627 -10.87873199 7.89737305 -10.87231445 6.9140625 C-10.87294388 6.07182129 -10.8735733 5.22958008 -10.8742218 4.36181641 C-10.75072861 3.68554199 -10.62723541 3.00926758 -10.5 2.3125 C-6.88536441 -0.09725706 -4.1778074 -0.01989432 0 0 Z " fill="#D10707" transform="translate(59.5,205.6875)"/>
<path d="M0 0 C10.56 0 21.12 0 32 0 C32 7.26 32 14.52 32 22 C30.68 21.01 29.36 20.02 28 19 C25.19993212 18.73373588 22.66413123 18.62513123 19.875 18.6875 C18.78251953 18.68266602 18.78251953 18.68266602 17.66796875 18.67773438 C13.36903258 18.59000923 13.36903258 18.59000923 10 21 C9.75393985 24.00886724 9.62619218 26.93217752 9.5859375 29.9453125 C9.56657135 30.8303244 9.5472052 31.7153363 9.5272522 32.62716675 C9.46737277 35.45967916 9.42103787 38.29223203 9.375 41.125 C9.33682789 43.04298668 9.29777662 44.96095607 9.2578125 46.87890625 C9.16166445 51.58579748 9.07766458 56.29276896 9 61 C6.03 61 3.06 61 0 61 C0 40.87 0 20.74 0 0 Z " fill="#FEFEFE" transform="translate(150,73)"/>
<path d="M0 0 C0.33 0 0.66 0 1 0 C1 29.37 1 58.74 1 89 C40.6 89 80.2 89 121 89 C121 80.09 121 71.18 121 62 C121.66 61.67 122.32 61.34 123 61 C123 110.17 123 159.34 123 210 C122.67 210 122.34 210 122 210 C122 190.86 122 171.72 122 152 C117.38 152.33 112.76 152.66 108 153 C96.53100667 153.33331475 85.02810008 152.8339604 73.5625 152.5 C71.8483127 152.45163073 70.13412 152.40345259 68.41992188 152.35546875 C64.27988255 152.23917393 60.13992415 152.12032245 56 152 C56 151.67 56 151.34 56 151 C77.45 151 98.9 151 121 151 C121 130.87 121 110.74 121 90 C81.4 90 41.8 90 1 90 C1 129.6 1 169.2 1 210 C0.67 210 0.34 210 0 210 C0 140.7 0 71.4 0 0 Z " fill="#DEC8DB" transform="translate(204,45)"/>
<path d="M0 0 C2.97 0 5.94 0 9 0 C9.01213028 1.05782684 9.01213028 1.05782684 9.02450562 2.13702393 C9.10249207 8.78762825 9.18979487 15.43803765 9.28752708 22.08838272 C9.33744294 25.50728559 9.38377312 28.92615828 9.421875 32.34521484 C9.46585076 36.27719477 9.52548319 40.2088625 9.5859375 44.140625 C9.59748871 45.36678528 9.60903992 46.59294556 9.62094116 47.85626221 C9.64081085 48.99714294 9.66068054 50.13802368 9.68115234 51.31347656 C9.69447601 52.31719299 9.70779968 53.32090942 9.7215271 54.3550415 C9.87980981 57.34479255 9.87980981 57.34479255 12 61 C7.05 61 2.1 61 -3 61 C-2.34 59.68 -1.68 58.36 -1 57 C-0.67432773 54.29407992 -0.67432773 54.29407992 -0.68115234 51.31347656 C-0.66128265 50.17259583 -0.64141296 49.03171509 -0.62094116 47.85626221 C-0.60938995 46.63010193 -0.59783875 45.40394165 -0.5859375 44.140625 C-0.56657135 42.88111023 -0.5472052 41.62159546 -0.5272522 40.32391357 C-0.47761586 36.9833905 -0.43633723 33.64297675 -0.39910889 30.30230713 C-0.35902661 26.89023952 -0.30795361 23.47833824 -0.2578125 20.06640625 C-0.16174963 13.37771119 -0.07670325 6.68894356 0 0 Z " fill="#FEFEFE" transform="translate(150,197)"/>
<path d="M0 0 C2.97 0 5.94 0 9 0 C9 20.13 9 40.26 9 61 C6.03 61 3.06 61 0 61 C0 40.87 0 20.74 0 0 Z " fill="#FFFFFF" transform="translate(150,135)"/>
<path d="M0 0 C2.04219706 1.69179328 2.91793306 2.63727666 3.51171875 5.26171875 C3.56972656 6.06222656 3.62773437 6.86273438 3.6875 7.6875 C3.78611328 8.89986328 3.78611328 8.89986328 3.88671875 10.13671875 C3.92410156 10.75160156 3.96148437 11.36648437 4 12 C7.68361653 13.22787218 11.04586284 13.06388199 14.875 13 C22.31008331 12.92985018 29.59483413 13.27880124 37 14 C37.33 13.34 37.66 12.68 38 12 C38.495 12.495 38.495 12.495 39 13 C41.19795566 13.09960079 43.39915446 13.12799757 45.59936523 13.12939453 C46.28880219 13.13114685 46.97823914 13.13289917 47.68856812 13.13470459 C49.97860191 13.13912314 52.2685591 13.1361848 54.55859375 13.1328125 C56.14421097 13.13348562 57.72982808 13.13445571 59.31544495 13.13571167 C62.6436562 13.13718871 65.97184068 13.13503418 69.30004883 13.13037109 C73.57198695 13.12467843 77.84386219 13.12794983 82.115798 13.13394356 C85.39195735 13.13755296 88.66810175 13.13640875 91.94426155 13.13381577 C93.51957265 13.13314731 95.0948851 13.1339721 96.67019463 13.13629532 C98.87057988 13.13882754 101.07086264 13.13497298 103.27124023 13.12939453 C104.52509018 13.12859894 105.77894012 13.12780334 107.07078552 13.12698364 C109.93525668 13.2023951 109.93525668 13.2023951 112 12 C112 12.66 112 13.32 112 14 C113.65 14 115.3 14 117 14 C116.67 13.34 116.34 12.68 116 12 C115.87917466 10.33654418 115.8246206 8.66779409 115.8125 7 C115.79832031 6.113125 115.78414062 5.22625 115.76953125 4.3125 C116 2 116 2 118 0 C120.52475716 -0.19893799 122.91514749 -0.27847435 125.4375 -0.25 C126.11876953 -0.25773438 126.80003906 -0.26546875 127.50195312 -0.2734375 C131.21409442 -0.25889434 132.83589372 -0.10940418 136 2 C136.328125 4.3125 136.328125 4.3125 136.25 7 C136.23453125 7.886875 136.2190625 8.77375 136.203125 9.6875 C136 12 136 12 135 14 C137.31 14 139.62 14 142 14 C142 14.33 142 14.66 142 15 C133.09 15 124.18 15 115 15 C115 17.97 115 20.94 115 24 C114.34 24 113.68 24 113 24 C113 21.03 113 18.06 113 15 C95.51 15 78.02 15 60 15 C60 17.97 60 20.94 60 24 C59.01 24 58.02 24 57 24 C57 21.03 57 18.06 57 15 C39.51 15 22.02 15 4 15 C4 17.97 4 20.94 4 24 C3.34 24 2.68 24 2 24 C2 21.03 2 18.06 2 15 C-3.61 15 -9.22 15 -15 15 C-15 14.67 -15 14.34 -15 14 C-14.00097656 13.93941406 -13.00195312 13.87882812 -11.97265625 13.81640625 C-10.03712891 13.69072266 -10.03712891 13.69072266 -8.0625 13.5625 C-6.77472656 13.48128906 -5.48695313 13.40007812 -4.16015625 13.31640625 C-1.13976043 13.35080812 -1.13976043 13.35080812 0 12 C0.07244053 9.98035801 0.08377188 7.95832876 0.0625 5.9375 C0.05347656 4.83277344 0.04445313 3.72804687 0.03515625 2.58984375 C0.02355469 1.73519531 0.01195312 0.88054687 0 0 Z " fill="#C9BECB" transform="translate(290,244)"/>
<path d="M0 0 C0.33 0 0.66 0 1 0 C1.74815983 23.05519324 2.1165084 46.10531139 2.28125 69.171875 C2.29079712 70.48989609 2.30034424 71.80791718 2.31018066 73.1658783 C2.38869454 84.10262846 2.45875181 95.03943303 2.52606201 105.97625732 C2.5769067 114.22419041 2.63159306 122.47207798 2.69187927 130.71994781 C2.7183443 134.55065106 2.73918096 138.38135913 2.7598877 142.21209717 C2.77646981 144.53169979 2.79333975 146.85130037 2.81054688 149.17089844 C2.81473129 150.23028122 2.81891571 151.289664 2.82322693 152.38114929 C2.83157059 153.34702469 2.83991425 154.31290009 2.84851074 155.30804443 C2.85366447 156.14692074 2.85881821 156.98579704 2.86412811 157.85009384 C2.9197064 160.18538868 2.9197064 160.18538868 4 163 C2.02 163 0.04 163 -2 163 C-1.67 162.01 -1.34 161.02 -1 160 C-0.89637839 157.85686125 -0.85354299 155.71062783 -0.84178162 153.5650177 C-0.83684364 152.90908605 -0.83190566 152.2531544 -0.82681805 151.57734603 C-0.81143825 149.37554119 -0.80308115 147.17376553 -0.79467773 144.97192383 C-0.78509959 143.39514407 -0.77508954 141.81836689 -0.76467896 140.24159241 C-0.73761696 135.95679917 -0.7166144 131.67199491 -0.69667697 127.3871634 C-0.67482541 122.91081365 -0.64743266 118.43449795 -0.62062073 113.95817566 C-0.57068261 105.47971161 -0.52574793 97.00122868 -0.48259836 88.52272767 C-0.43323555 78.87106595 -0.37831388 69.21943839 -0.32291877 59.5678097 C-0.20908155 39.71190495 -0.10224629 19.8559676 0 0 Z " fill="#F9E2E3" transform="translate(181,95)"/>
<path d="M0 0 C1.10601562 0.00483398 1.10601562 0.00483398 2.234375 0.00976562 C2.97171875 -0.00634766 3.7090625 -0.02246094 4.46875 -0.0390625 C6.609375 -0.04101562 6.609375 -0.04101562 10.234375 0.32226562 C12.40159282 3.57309236 12.50658518 4.61458716 12.484375 8.38476562 C12.48953125 9.26261719 12.4946875 10.14046875 12.5 11.04492188 C12.234375 13.32226562 12.234375 13.32226562 10.234375 15.32226562 C7.52514699 15.52078664 4.94134321 15.6006604 2.234375 15.57226562 C1.12835938 15.58386719 1.12835938 15.58386719 0 15.59570312 C-5.5123054 15.57558522 -5.5123054 15.57558522 -7.765625 13.32226562 C-8.03125 10.79101562 -8.03125 10.79101562 -8.015625 7.82226562 C-8.02078125 6.84257812 -8.0259375 5.86289063 -8.03125 4.85351562 C-7.49350651 -0.27086351 -4.47926308 0.04495611 0 0 Z " fill="#D00505" transform="translate(278.765625,242.677734375)"/>
<path d="M0 0 C0.68513672 0.00773438 1.37027344 0.01546875 2.07617188 0.0234375 C2.75744141 0.01570312 3.43871094 0.00796875 4.140625 0 C7.8527663 0.01454316 9.4745656 0.16403332 12.63867188 2.2734375 C13.03710938 4.5859375 13.03710938 4.5859375 13.01367188 7.2734375 C13.02140625 8.1603125 13.02914063 9.0471875 13.03710938 9.9609375 C12.905625 10.7240625 12.77414062 11.4871875 12.63867188 12.2734375 C9.0018165 14.69800775 6.27634409 14.57112157 2.07617188 14.5234375 C1.39103516 14.53117187 0.70589844 14.53890625 0 14.546875 C-5.10794143 14.5268242 -5.10794143 14.5268242 -7.36132812 12.2734375 C-7.62695312 9.9609375 -7.62695312 9.9609375 -7.61132812 7.2734375 C-7.61648438 6.3865625 -7.62164062 5.4996875 -7.62695312 4.5859375 C-7.07511312 -0.21831668 -4.18204891 0.01641629 0 0 Z " fill="#2C4BFF" transform="translate(413.361328125,243.7265625)"/>
<path d="M0 0 C0.99 0.33 1.98 0.66 3 1 C2.51322375 1.36149549 2.02644751 1.72299097 1.52492046 2.09544086 C-0.69141169 4.86354304 -0.38503665 6.95441823 -0.39872742 10.47294617 C-0.40537424 11.13296137 -0.41202107 11.79297658 -0.41886932 12.47299224 C-0.43755008 14.68877508 -0.43489075 16.90402034 -0.43237305 19.11987305 C-0.44138715 20.70651007 -0.4517135 22.2931401 -0.46325684 23.87976074 C-0.49089443 28.19144731 -0.50012048 32.503002 -0.50611091 36.81476569 C-0.51547704 41.31917559 -0.54167894 45.82348628 -0.56611633 50.32783508 C-0.6098336 58.85942208 -0.63834842 67.39098989 -0.66143972 75.92265493 C-0.68846341 85.63480943 -0.73237662 95.3468644 -0.77772844 105.05894792 C-0.87064956 125.03924512 -0.94229606 145.01957211 -1 165 C-1.33 165 -1.66 165 -2 165 C-2.0466673 143.78199133 -2.08196294 122.56399108 -2.10362434 101.34594154 C-2.11394828 91.49460767 -2.12802988 81.64330563 -2.15087891 71.79199219 C-2.17077866 63.20817748 -2.1837083 54.62438582 -2.18817699 46.04054868 C-2.19079018 41.49313528 -2.19695534 36.94578785 -2.21146011 32.39839554 C-2.22499016 28.12212256 -2.22923197 23.845943 -2.22621536 19.56965065 C-2.22676759 17.99662965 -2.23077222 16.42360566 -2.23841095 14.8506031 C-2.24830078 12.70982542 -2.24599102 10.56940461 -2.24050903 8.42861938 C-2.24235262 7.22844492 -2.24419621 6.02827045 -2.24609566 4.79172707 C-2 2 -2 2 0 0 Z " fill="#DA3636" transform="translate(162,91)"/>
<path d="M0 0 C1.46096924 0.00667719 2.92192134 0.01864183 4.3828125 0.03515625 C5.11628906 0.03966797 5.84976562 0.04417969 6.60546875 0.04882812 C8.57294401 0.06137123 10.54038336 0.07924995 12.5078125 0.09765625 C14.7162441 0.09765625 16.92470907 0.073227 19.1328125 0.03515625 C22.5078125 0.09765625 22.5078125 0.09765625 23.5078125 1.09765625 C23.5078125 2.74765625 23.5078125 4.39765625 23.5078125 6.09765625 C14.9278125 6.09765625 6.3478125 6.09765625 -2.4921875 6.09765625 C-2.4921875 4.77765625 -2.4921875 3.45765625 -2.4921875 2.09765625 C-3.1521875 1.76765625 -3.8121875 1.43765625 -4.4921875 1.09765625 C-3.4921875 0.09765625 -3.4921875 0.09765625 0 0 Z " fill="#A6A6A6" transform="translate(12.4921875,6.90234375)"/>
<path d="M0 0 C0.33 0 0.66 0 1 0 C1.00634791 0.92352375 1.00634791 0.92352375 1.01282406 1.86570454 C1.11607327 16.83809231 1.22470242 31.81043052 1.33933926 46.78273487 C1.39464637 54.02319028 1.44812425 61.26365062 1.49731445 68.50415039 C1.54018706 74.81405737 1.58647283 81.12392843 1.63687855 87.4337799 C1.6634547 90.77560811 1.68830715 94.11742931 1.70907402 97.45929909 C1.73309903 101.18751632 1.76315639 104.91563852 1.79467773 108.64379883 C1.8004332 109.75510162 1.80618866 110.86640442 1.81211853 112.01138306 C1.82190735 113.02520554 1.83169617 114.03902802 1.84178162 115.08357239 C1.84823417 115.96572827 1.85468672 116.84788416 1.8613348 117.75677204 C1.91406315 120.17067972 1.91406315 120.17067972 3 123 C1.02 123 -0.96 123 -3 123 C-2.67 122.01 -2.34 121.02 -2 120 C-1.34 120 -0.68 120 0 120 C0 80.4 0 40.8 0 0 Z " fill="#EFF1FE" transform="translate(182,135)"/>
<path d="M0 0 C0.99 0.33 1.98 0.66 3 1 C2.67 1.66 2.34 2.32 2 3 C2.66 3 3.32 3 4 3 C4.33 2.01 4.66 1.02 5 0 C5.5775 0.165 6.155 0.33 6.75 0.5 C9.26664369 1.14462031 9.26664369 1.14462031 13 1 C16.33333333 1 19.66666667 1 23 1 C23 2.65 23 4.3 23 6 C21.68 6 20.36 6 19 6 C17.66431979 6.32380126 16.33076989 6.65657551 15 7 C10 7 5 7 0 7 C0 4.66666667 0 2.33333333 0 0 Z " fill="#A8A8A8" transform="translate(13,124)"/>
<path d="M0 0 C5.65796419 -0.09125749 11.1170654 0.12951483 16.73828125 0.78125 C19.2848581 1.0641795 19.2848581 1.0641795 23 1 C23 2.65 23 4.3 23 6 C21.68 6 20.36 6 19 6 C17.66431979 6.32380126 16.33076989 6.65657551 15 7 C14.01 7 13.02 7 12 7 C10.2365625 7.061875 10.2365625 7.061875 8.4375 7.125 C5 7 5 7 3 5 C2.01 5.66 1.02 6.32 0 7 C0.2784375 6.1028125 0.2784375 6.1028125 0.5625 5.1875 C1.22093687 2.83591238 1.22093687 2.83591238 0 0 Z " fill="#B3B3B3" transform="translate(13,62)"/>
<path d="M0 0 C0.66 0.33 1.32 0.66 2 1 C2.02505615 2.31718018 2.0501123 3.63436035 2.07592773 4.99145508 C2.17000882 9.87241562 2.27022792 14.75323408 2.37231445 19.6340332 C2.41566064 21.7476062 2.45733594 23.86121414 2.49731445 25.97485352 C2.55502449 29.01068664 2.61871701 32.04634389 2.68359375 35.08203125 C2.70030624 36.02899368 2.71701874 36.97595612 2.73423767 37.95161438 C2.75418289 38.83230087 2.77412811 39.71298737 2.79467773 40.62036133 C2.81022202 41.39535477 2.8257663 42.17034821 2.84178162 42.96882629 C2.93355377 45.20332493 2.93355377 45.20332493 4 48 C2.02 48 0.04 48 -2 48 C-1.67 47.01 -1.34 46.02 -1 45 C-0.88624128 43.51229395 -0.82392798 42.02032676 -0.79467773 40.52856445 C-0.7647599 39.17750359 -0.7647599 39.17750359 -0.73423767 37.79914856 C-0.70916893 36.34589424 -0.70916893 36.34589424 -0.68359375 34.86328125 C-0.66281265 33.86870407 -0.64203156 32.87412689 -0.62062073 31.84941101 C-0.55520588 28.67051133 -0.4962776 25.49152866 -0.4375 22.3125 C-0.39430712 20.15819452 -0.35069258 18.00389746 -0.30664062 15.84960938 C-0.19953274 10.56649412 -0.09775127 5.28329621 0 0 Z " fill="#F9E8E9" transform="translate(70,210)"/>
<path d="M0 0 C10 0 10 0 11.9375 0.5 C14.29419326 1.15706668 14.29419326 1.15706668 18 1 C18 2.65 18 4.3 18 6 C11.73 6 5.46 6 -1 6 C-1 3 -1 3 0 0 Z " fill="#A7A7A7" transform="translate(18,186)"/>
<path d="M0 0 C1.53202706 0.25195908 3.05257128 0.57596777 4.5625 0.9375 C5.38878906 1.13214844 6.21507812 1.32679688 7.06640625 1.52734375 C8.02353516 1.76130859 8.02353516 1.76130859 9 2 C9 1.34 9 0.68 9 0 C9.66 0 10.32 0 11 0 C11 1.98 11 3.96 11 6 C9.33388095 6.042721 7.66617115 6.04063832 6 6 C5.67 5.67 5.34 5.34 5 5 C4.46375 5.144375 3.9275 5.28875 3.375 5.4375 C0.22486086 6.18358559 -2.77523516 6.06201471 -6 6 C-6.33 4.35 -6.66 2.7 -7 1 C-5.5459375 1.0309375 -5.5459375 1.0309375 -4.0625 1.0625 C-1.12534105 1.35618499 -1.12534105 1.35618499 0 0 Z " fill="#ABAEB5" transform="translate(291,280)"/>
<path d="M0 0 C2.21844626 0.19015254 3.41522155 0.41522155 5 2 C7.5075134 2.04868958 9.99358158 2.0417416 12.5 2 C21.36813706 1.91618558 30.15653694 2.38018281 39 3 C39 3.33 39 3.66 39 4 C27.12 4 15.24 4 3 4 C3 6.97 3 9.94 3 13 C2.34 13 1.68 13 1 13 C1 10.03 1 7.06 1 4 C-0.65 4 -2.3 4 -4 4 C-2.25 1.9375 -2.25 1.9375 0 0 Z " fill="#CDCDDA" transform="translate(125,255)"/>
<path d="M0 0 C3.78706732 0 7.26513121 0.4254048 11 1 C10.01 1.495 10.01 1.495 9 2 C9.99 2.33 10.98 2.66 12 3 C12 2.34 12 1.68 12 1 C13.65 1 15.3 1 17 1 C17 2.32 17 3.64 17 5 C11.39 5 5.78 5 0 5 C0 3.35 0 1.7 0 0 Z " fill="#B3B5BC" transform="translate(174,281)"/>
<path d="M0 0 C0.99 0.33 1.98 0.66 3 1 C2.67 1.66 2.34 2.32 2 3 C2.66 3 3.32 3 4 3 C4.33 2.01 4.66 1.02 5 0 C5.78375 0.33 6.5675 0.66 7.375 1 C9.84332497 2.11866511 9.84332497 2.11866511 12 2 C12 3.65 12 5.3 12 7 C8.04 7 4.08 7 0 7 C0 4.66666667 0 2.33333333 0 0 Z " fill="#B0B0B0" transform="translate(13,124)"/>
<path d="M0 0 C0.99 0 1.98 0 3 0 C3 0.66 3 1.32 3 2 C3.66 2 4.32 2 5 2 C5 2.99 5 3.98 5 5 C5.66 5 6.32 5 7 5 C7 4.01 7 3.02 7 2 C9.31 2 11.62 2 14 2 C14 3.32 14 4.64 14 6 C9.05 6 4.1 6 -1 6 C-1 3 -1 3 0 0 Z " fill="#B4B6BD" transform="translate(121,280)"/>
<path d="M0 0 C1.98 0 3.96 0 6 0 C6 0.66 6 1.32 6 2 C8.64 2 11.28 2 14 2 C14 3.32 14 4.64 14 6 C9.71 6 5.42 6 1 6 C0.67 4.02 0.34 2.04 0 0 Z " fill="#B2B4BB" transform="translate(341,280)"/>
<path d="M0 0 C0.66 0.33 1.32 0.66 2 1 C1.67 1.66 1.34 2.32 1 3 C1.99 2.67 2.98 2.34 4 2 C5.99673484 1.64763503 7.99650739 1.31165441 10 1 C10.33 2.65 10.66 4.3 11 6 C7.04 6 3.08 6 -1 6 C-1 3 -1 3 0 0 Z " fill="#A2A5AE" transform="translate(67,280)"/>
<path d="M0 0 C0.33 3.96 0.66 7.92 1 12 C-0.65 12 -2.3 12 -4 12 C-3.88648483 10.18674449 -3.75887039 8.37436643 -3.625 6.5625 C-3.55539062 5.55316406 -3.48578125 4.54382813 -3.4140625 3.50390625 C-3.27742188 2.67761719 -3.14078125 1.85132813 -3 1 C-1 0 -1 0 0 0 Z " fill="#D8DCFD" transform="translate(406,246)"/>
<path d="M0 0 C2.31 0 4.62 0 7 0 C7.33 0.66 7.66 1.32 8 2 C7.67 2.99 7.34 3.98 7 5 C4.36 5.33 1.72 5.66 -1 6 C-1 3 -1 3 0 0 Z " fill="#BBBBBB" transform="translate(18,186)"/>
<path d="M0 0 C2.97 0 5.94 0 9 0 C9 1.65 9 3.3 9 5 C7.68 5 6.36 5 5 5 C4.01 5.33 3.02 5.66 2 6 C2.33 4.35 2.66 2.7 3 1 C2.01 1.33 1.02 1.66 0 2 C0 1.34 0 0.68 0 0 Z " fill="#A3A3A3" transform="translate(27,63)"/>
<path d="M0 0 C2.33294775 -0.04241723 4.66702567 -0.04092937 7 0 C8 1 8 1 8.0625 3.5625 C8.041875 4.366875 8.02125 5.17125 8 6 C6.35 5.67 4.7 5.34 3 5 C3 4.34 3 3.68 3 3 C2.67 3.66 2.34 4.32 2 5 C1.34 5 0.68 5 0 5 C0 3.35 0 1.7 0 0 Z " fill="#B4B4B4" transform="translate(28,7)"/>
<path d="M0 0 C2.0625 0.4375 2.0625 0.4375 4 1 C3.01 1 2.02 1 1 1 C1 1.66 1 2.32 1 3 C3.64 2.67 6.28 2.34 9 2 C9 3.32 9 4.64 9 6 C7.35 6 5.7 6 4 6 C4 5.34 4 4.68 4 4 C3.01 4 2.02 4 1 4 C1 4.66 1 5.32 1 6 C0.34 6 -0.32 6 -1 6 C-1.042721 4.33388095 -1.04063832 2.66617115 -1 1 C-0.67 0.67 -0.34 0.34 0 0 Z " fill="#B3B5BC" transform="translate(399,280)"/>
<path d="M0 0 C3.28431453 3.28431453 3.5143852 4.28636475 4.1875 8.6875 C4.42533203 10.17830078 4.42533203 10.17830078 4.66796875 11.69921875 C4.77753906 12.45847656 4.88710938 13.21773438 5 14 C3.35 14 1.7 14 0 14 C0 9.38 0 4.76 0 0 Z " fill="#F3C2C3" transform="translate(290,244)"/>
<path d="M0 0 C1.32 0.66 2.64 1.32 4 2 C2.71086513 2.67154933 1.41859796 3.33708859 0.125 4 C-0.59429687 4.37125 -1.31359375 4.7425 -2.0546875 5.125 C-4 6 -4 6 -6 6 C-6.33 4.35 -6.66 2.7 -7 1 C-5.5459375 1.0309375 -5.5459375 1.0309375 -4.0625 1.0625 C-1.12534105 1.35618499 -1.12534105 1.35618499 0 0 Z " fill="#BBBEC4" transform="translate(291,280)"/>
<path d="M0 0 C3.3 0 6.6 0 10 0 C9.67 1.32 9.34 2.64 9 4 C6.03 4 3.06 4 0 4 C0 2.68 0 1.36 0 0 Z " fill="#ACAFB6" transform="translate(235,282)"/>
<path d="M0 0 C1.134375 0.020625 2.26875 0.04125 3.4375 0.0625 C3.1075 1.7125 2.7775 3.3625 2.4375 5.0625 C0.7875 5.3925 -0.8625 5.7225 -2.5625 6.0625 C-2.5625 4.7425 -2.5625 3.4225 -2.5625 2.0625 C-3.2225 1.7325 -3.8825 1.4025 -4.5625 1.0625 C-3.5625 0.0625 -3.5625 0.0625 0 0 Z " fill="#B5B5B5" transform="translate(12.5625,6.9375)"/>
<path d="M0 0 C0.99 0.33 1.98 0.66 3 1 C3 2.65 3 4.3 3 6 C1.35 5.67 -0.3 5.34 -2 5 C-1.125 1.125 -1.125 1.125 0 0 Z " fill="#AFAFAF" transform="translate(33,248)"/>
<path d="M0 0 C0.99 0 1.98 0 3 0 C3 1.32 3 2.64 3 4 C3.66 4 4.32 4 5 4 C5.33 3.01 5.66 2.02 6 1 C6.33 1.66 6.66 2.32 7 3 C6.67 3.66 6.34 4.32 6 5 C3.36 5 0.72 5 -2 5 C-1.34 4.67 -0.68 4.34 0 4 C0 2.68 0 1.36 0 0 Z " fill="#919191" transform="translate(25,8)"/>
<path d="M0 0 C2 0 4 0 6 0 C6 0.99 6 1.98 6 3 C4.02 3.66 2.04 4.32 0 5 C0 3.35 0 1.7 0 0 Z " fill="#ACAFB6" transform="translate(174,281)"/>
<path d="M0 0 C0 1.65 0 3.3 0 5 C-0.99 5.33 -1.98 5.66 -3 6 C-3.33 4.35 -3.66 2.7 -4 1 C-2 0 -2 0 0 0 Z " fill="#BBBBBB" transform="translate(25,7)"/>
<path d="M0 0 C0.99 0.66 1.98 1.32 3 2 C3 2.66 3 3.32 3 4 C1.02 4 -0.96 4 -3 4 C-2.67 3.01 -2.34 2.02 -2 1 C-1.34 0.67 -0.68 0.34 0 0 Z " fill="#F2E8F2" transform="translate(182,254)"/>
</svg>
