<svg width="29" height="35" viewBox="0 0 29 35" fill="none" xmlns="http://www.w3.org/2000/svg">
<path d="M23.7756 18.6175C23.7385 14.1918 27.3977 12.0408 27.5584 11.9419C25.4816 8.92545 22.2674 8.50513 21.1424 8.46804C18.4474 8.18371 15.8266 10.0875 14.4544 10.0875C13.0574 10.0875 10.9311 8.50513 8.65646 8.54222C5.72659 8.59167 2.96979 10.2853 1.47395 12.9308C-1.629 18.3085 0.682758 26.2203 3.66208 30.5719C5.15792 32.6982 6.88864 35.0841 9.17567 34.9976C11.4009 34.9111 12.2415 33.5759 14.9242 33.5759C17.5944 33.5759 18.3732 34.9976 20.6974 34.9481C23.0956 34.9111 24.5915 32.8095 26.0379 30.6584C27.7562 28.223 28.4485 25.8124 28.4733 25.6888C28.4114 25.664 23.825 23.9086 23.7756 18.6175Z" fill="#4A4848"/>
<path d="M19.3874 5.61249C20.5865 4.11665 21.4024 2.07687 21.1799 0C19.4492 0.0741739 17.2734 1.19915 16.0248 2.67026C14.9246 3.96831 13.9356 6.08226 14.1828 8.0726C16.1361 8.22094 18.1388 7.08361 19.3874 5.61249Z" fill="#4A4848"/>
</svg>
