<svg width="38" height="13" viewBox="0 0 38 13" fill="none" xmlns="http://www.w3.org/2000/svg">
<path d="M20.649 10.8432C20.6098 11.5798 20.282 12.0838 19.6536 12.3896C19.4709 12.4779 19.3007 12.4079 19.2177 12.2207C19.1535 12.0759 19.2271 11.9118 19.3988 11.8349C19.8441 11.6362 20.0393 11.229 20.0309 10.8453C20.0205 10.3784 19.7418 10.0224 19.3028 9.86922C18.88 9.72232 18.4384 9.86504 18.1262 10.2503C17.8867 10.5462 17.8663 11.0575 18.0767 11.3999C18.1931 11.5902 18.347 11.7335 18.5496 11.8292C18.7406 11.9191 18.8079 12.0853 18.7307 12.25C18.6519 12.4178 18.465 12.4717 18.2776 12.3765C17.7744 12.1224 17.4445 11.7272 17.3438 11.1663C17.1846 10.2796 17.7374 9.48445 18.5339 9.26383C19.4756 9.00296 20.3796 9.59894 20.5905 10.461C20.6234 10.5969 20.6333 10.7391 20.649 10.8432Z" fill="#00AA11"/>
<path d="M23.0519 9.94296C23.0571 9.87238 23.0607 9.81644 23.0654 9.75214C23.2283 9.75214 23.3849 9.75214 23.5514 9.75214C23.555 9.78769 23.5618 9.82167 23.5618 9.85565C23.5624 10.4307 23.565 11.0063 23.5608 11.5819C23.5577 11.9369 23.4209 12.2291 23.1041 12.4079C22.7074 12.6327 22.0883 12.5621 21.7339 12.2636C21.7005 12.2354 21.6686 12.2056 21.6295 12.1706C21.7349 12.0665 21.8383 11.9646 21.9521 11.8527C22.129 11.9949 22.3274 12.0665 22.5591 12.0597C22.9167 12.0488 23.0931 11.8527 23.0466 11.4711C22.747 11.7058 22.4171 11.7147 22.0815 11.6023C21.8816 11.5354 21.7239 11.4015 21.6117 11.2144C21.3753 10.8197 21.4363 10.3188 21.7636 10.013C22.1144 9.68522 22.6447 9.65177 23.0519 9.94296ZM23.0315 10.7078C23.0315 10.3743 22.8509 10.1923 22.522 10.1955C22.2125 10.1981 22.0042 10.4014 21.9928 10.6838C21.9781 11.0523 22.2172 11.218 22.5335 11.2139C22.8587 11.2092 23.0315 11.0372 23.0315 10.7078Z" fill="black"/>
<path d="M31.2963 9.74647C30.9967 10.0293 30.7237 10.2876 30.4465 10.5495C30.7284 10.9248 31.004 11.2918 31.2984 11.6839C31.0969 11.6839 30.9304 11.6892 30.7644 11.6803C30.7258 11.6782 30.6798 11.6369 30.6537 11.6019C30.5003 11.3969 30.3526 11.1878 30.2022 10.9808C30.1772 10.9458 30.15 10.9123 30.1051 10.8527C29.9971 10.9766 29.8593 11.0738 29.8123 11.2045C29.7633 11.341 29.8014 11.5088 29.8014 11.6845C29.7116 11.6845 29.6338 11.6845 29.556 11.6845C29.4819 11.6845 29.4073 11.6845 29.3211 11.6845C29.3175 11.6264 29.3128 11.5799 29.3128 11.5328C29.3123 10.8072 29.3159 10.0811 29.3086 9.3549C29.3076 9.21532 29.3504 9.17507 29.4819 9.18918C29.5816 9.20016 29.6829 9.19127 29.7998 9.19127C29.7998 9.63251 29.7998 10.0581 29.7998 10.5197C29.9517 10.3822 30.0785 10.2698 30.2028 10.1548C30.3296 10.0382 30.4528 9.91795 30.5801 9.80241C30.6078 9.77732 30.6459 9.74961 30.6804 9.74856C30.8725 9.74386 31.0651 9.74647 31.2963 9.74647Z" fill="black"/>
<path d="M27.5451 10.8798C27.5754 11.0847 27.7711 11.2415 27.9966 11.2593C28.1871 11.2745 28.3656 11.2468 28.5212 11.1229C28.5462 11.103 28.5995 11.0873 28.6209 11.1004C28.7253 11.1647 28.8229 11.2389 28.9325 11.3163C28.5948 11.6535 28.2101 11.746 27.7685 11.6368C27.4088 11.5479 27.1484 11.3456 27.0638 10.9765C26.8806 10.173 27.4986 9.64181 28.2127 9.76309C28.6271 9.83315 28.885 10.0768 28.9821 10.4825C29.0113 10.6037 29.003 10.7339 29.0129 10.8798C28.7535 10.8798 28.5118 10.8798 28.2701 10.8798C28.0321 10.8798 27.7935 10.8798 27.5451 10.8798ZM28.504 10.5096C28.4705 10.2686 28.279 10.1536 27.9569 10.1688C27.7262 10.1792 27.5696 10.311 27.5581 10.5096C27.8713 10.5096 28.1835 10.5096 28.504 10.5096Z" fill="black"/>
<path d="M24.8798 9.71866C25.4509 9.74166 25.8753 10.0977 25.9181 10.6524C25.9468 11.0309 25.7808 11.3346 25.4488 11.5385C25.0683 11.7722 24.4649 11.7094 24.1428 11.3979C23.6595 10.93 23.8072 10.105 24.4263 9.84622C24.5698 9.7861 24.728 9.76048 24.8798 9.71866ZM25.3992 10.7161C25.3982 10.4014 25.1977 10.1934 24.8945 10.1954C24.5541 10.1981 24.3761 10.4176 24.3647 10.7172C24.3537 11.0052 24.6001 11.2363 24.8887 11.2342C25.1972 11.2316 25.4003 11.0256 25.3992 10.7161Z" fill="black"/>
<path d="M26.2173 9.74742C26.3922 9.74742 26.5462 9.74742 26.7216 9.74742C26.7216 9.79081 26.7216 9.83264 26.7216 9.87446C26.7216 10.5745 26.7216 11.2745 26.721 11.9745C26.721 12.3274 26.5154 12.5328 26.1625 12.5339C26.0268 12.5344 25.8906 12.5344 25.7402 12.5344C25.7402 12.4513 25.7402 12.3818 25.7402 12.3122C25.7402 12.2422 25.7402 12.1716 25.7402 12.077C25.8311 12.077 25.9135 12.0801 25.9955 12.0759C26.1818 12.067 26.2173 12.0289 26.2173 11.8449C26.2173 11.1982 26.2173 10.5515 26.2173 9.90478C26.2173 9.85668 26.2173 9.80911 26.2173 9.74742Z" fill="black"/>
<path d="M18.3641 10.8503C18.326 10.567 18.6846 10.2261 18.9889 10.246C19.3261 10.2685 19.6049 10.5314 19.6028 10.8686C19.6007 11.2043 19.3094 11.5007 18.9743 11.4918C18.6387 11.4829 18.3443 11.2168 18.3641 10.8503Z" fill="#00AA11"/>
<path d="M6.70117 9.98225H7.22158C7.50502 9.98225 7.67257 10.1422 7.67257 10.3989C7.67257 10.6598 7.50711 10.8124 7.22158 10.8124H6.85933V11.3337H6.70117V9.98225ZM7.21219 10.6619C7.41837 10.6619 7.51285 10.5788 7.51285 10.3989C7.51285 10.2196 7.41419 10.1328 7.21219 10.1328H6.85933V10.6619H7.21219Z" fill="black"/>
<path d="M8.23165 10.2812C8.52083 10.2812 8.71396 10.4992 8.71396 10.8218C8.71396 11.1443 8.52083 11.3623 8.23165 11.3623C7.94456 11.3623 7.75195 11.1443 7.75195 10.8218C7.75195 10.4992 7.94456 10.2812 8.23165 10.2812ZM8.23165 10.4224C8.02965 10.4224 7.90228 10.5766 7.90228 10.8218C7.90228 11.067 8.02965 11.2212 8.23165 11.2212C8.43418 11.2212 8.56363 11.067 8.56363 10.8218C8.56363 10.5766 8.43418 10.4224 8.23165 10.4224Z" fill="black"/>
<path d="M8.81055 10.3099H8.95879L9.14357 11.1056H9.14774L9.42126 10.3099H9.55802L9.83206 11.1056H9.83571L10.021 10.3099H10.1693L9.92445 11.3336H9.78195L9.49277 10.4976H9.4886L9.19786 11.3336H9.05483L8.81055 10.3099Z" fill="black"/>
<path d="M10.74 10.2812C11.014 10.2812 11.1967 10.4877 11.1967 10.7888V10.8662H10.42C10.4242 11.0633 10.5494 11.2254 10.7363 11.2254C10.8809 11.2254 10.9618 11.1731 11.0485 11.0204L11.1737 11.0957C11.0871 11.2714 10.9388 11.3623 10.74 11.3623C10.4565 11.3623 10.2676 11.1443 10.2676 10.8218C10.2676 10.4992 10.4628 10.2812 10.74 10.2812ZM11.0448 10.7444C11.0427 10.6498 11.0119 10.5729 10.9561 10.5107C10.9002 10.449 10.8287 10.4182 10.74 10.4182C10.5667 10.4182 10.4278 10.5729 10.4242 10.7444H11.0448Z" fill="black"/>
<path d="M11.4121 10.31H11.5546V10.3953H11.5583C11.5969 10.3315 11.6721 10.2928 11.7702 10.2928C11.801 10.2928 11.836 10.2985 11.8725 10.3085L11.8396 10.4648C11.8031 10.4533 11.7686 10.4475 11.7394 10.4475C11.6183 10.4475 11.5619 10.5286 11.5619 10.7194V11.3337H11.4121V10.31Z" fill="black"/>
<path d="M12.4138 10.2812C12.6873 10.2812 12.8705 10.4877 12.8705 10.7888V10.8662H12.0938C12.0975 11.0633 12.2228 11.2254 12.4096 11.2254C12.5542 11.2254 12.6356 11.1731 12.7223 11.0204L12.8476 11.0957C12.7609 11.2714 12.6121 11.3623 12.4138 11.3623C12.1304 11.3623 11.9414 11.1443 11.9414 10.8218C11.9414 10.4992 12.1361 10.2812 12.4138 10.2812ZM12.7181 10.7444C12.7165 10.6498 12.6857 10.5729 12.6299 10.5107C12.5735 10.449 12.5025 10.4182 12.4138 10.4182C12.2405 10.4182 12.1017 10.5729 12.0975 10.7444H12.7181Z" fill="black"/>
<path d="M13.5037 10.2812C13.6274 10.2812 13.7371 10.3335 13.8044 10.4182H13.8086V9.92412H13.9589V11.3336H13.8143V11.2311H13.8101C13.7428 11.3142 13.629 11.3623 13.5037 11.3623C13.2381 11.3623 13.0449 11.1401 13.0449 10.8217C13.0449 10.5034 13.2381 10.2812 13.5037 10.2812ZM13.8086 10.7214C13.8086 10.5551 13.6734 10.4223 13.5037 10.4223C13.3205 10.4223 13.1953 10.5802 13.1953 10.8217C13.1953 11.0633 13.3205 11.2212 13.5137 11.2212C13.6755 11.2212 13.8086 11.0863 13.8086 10.92V10.7214Z" fill="black"/>
<path d="M14.8784 11.2311V11.3336H14.7344V9.92415H14.8842V10.4182H14.8884C14.9557 10.3335 15.0658 10.2812 15.189 10.2812C15.4552 10.2812 15.6478 10.5034 15.6478 10.8218C15.6478 11.1402 15.4552 11.3623 15.189 11.3623C15.0637 11.3623 14.95 11.3142 14.8826 11.2311H14.8784ZM15.189 10.4224C15.0194 10.4224 14.8842 10.5552 14.8842 10.7214V10.9201C14.8842 11.0863 15.0173 11.2212 15.1791 11.2212C15.3722 11.2212 15.4975 11.0633 15.4975 10.8218C15.4975 10.5802 15.3722 10.4224 15.189 10.4224Z" fill="black"/>
<path d="M16.0903 11.2463L15.6973 10.3099H15.8575L16.1676 11.0727H16.1712L16.4839 10.3099H16.6436L16.0308 11.7675H15.8747L16.0903 11.2463Z" fill="black"/>
<path d="M4.14607 0C6.43547 0 8.29162 1.79421 8.29162 4.00718C8.29162 6.22015 6.43547 8.01436 4.14607 8.01436C1.85615 8.01436 0 6.22015 0 4.00718C0 1.79421 1.85615 0 4.14607 0Z" fill="#00AED6"/>
<path fill-rule="evenodd" clip-rule="evenodd" d="M6.56426 3.88382C6.53242 3.37358 6.08352 2.98253 5.55527 3.00554H2.93651C2.84099 3.00554 2.76373 2.93078 2.76373 2.83824C2.76373 2.74623 2.84099 2.67147 2.93651 2.67147H5.58972C5.57459 2.32591 5.3303 2.02896 4.98527 1.93695C4.2117 1.80312 3.41986 1.80312 2.64629 1.93695C2.20678 2.04151 1.87794 2.39492 1.81739 2.82831C1.69629 3.61458 1.69629 4.41341 1.81739 5.19916C1.90978 5.65817 2.28665 6.01314 2.76373 6.09104C3.72261 6.20762 4.69297 6.20762 5.65184 6.09104C6.07934 6.00739 6.40244 5.6681 6.4536 5.24935C6.54129 4.79922 6.57835 4.34126 6.56426 3.88382ZM5.70038 4.44477V4.59168C5.70038 4.68369 5.62313 4.75845 5.52761 4.75845C5.43209 4.75845 5.35483 4.68369 5.35483 4.59168V4.44477C5.29898 4.39772 5.26766 4.32924 5.26871 4.25761C5.26871 4.11908 5.38459 4.0072 5.52761 4.0072C5.67063 4.0072 5.78651 4.11908 5.78651 4.25761C5.78599 4.32871 5.75467 4.39668 5.70038 4.44477Z" fill="white"/>
<path d="M20.1001 3.55666C20.1059 2.85404 19.5212 2.28001 18.7941 2.27426C18.067 2.26904 17.4735 2.83365 17.4678 3.53628C17.462 4.2389 18.0467 4.81345 18.7738 4.81868C18.7806 4.81868 18.7873 4.81868 18.7941 4.81868C19.4837 4.85475 20.073 4.34294 20.11 3.67638C20.1121 3.63665 20.1121 3.5964 20.1106 3.55666H20.1001ZM16.1895 3.55666C16.1895 2.22094 17.2809 1.20255 18.7941 1.20255C20.3073 1.20255 21.3993 2.22721 21.3993 3.55666C21.3993 4.88559 20.3178 5.91392 18.7941 5.91392C17.2705 5.91392 16.1895 4.88873 16.1895 3.55666Z" fill="black"/>
<path d="M14.1179 3.8C14.1179 4.35102 13.5375 4.80166 12.802 4.80166C12.126 4.86805 11.5226 4.39179 11.4542 3.73831C11.4475 3.67244 11.4464 3.60604 11.4511 3.53965C11.4511 2.8114 12.0039 2.31057 12.8537 2.31057C13.5448 2.31057 14.1179 2.76801 14.1179 3.28557V3.8ZM14.1696 1.1986V1.72609C13.7494 1.357 13.1924 1.16828 12.6256 1.20226C11.2851 1.21376 10.2088 2.27397 10.2208 3.56945C10.2333 4.86492 11.33 5.90579 12.6704 5.89377C13.2222 5.91781 13.7593 5.71811 14.1523 5.34275V5.79339C14.1523 6.40453 13.6069 6.85204 12.8881 6.85204C12.3395 6.8902 11.7987 6.7067 11.3958 6.34441L10.5559 7.12598C11.1854 7.72301 12.0409 8.044 12.9226 8.0142C14.3945 8.0142 15.403 7.05906 15.403 5.78712V1.1986H14.1696Z" fill="black"/>
<path d="M22.1602 1.33574H23.3967V1.72992H23.4139C23.8195 1.37234 24.3551 1.18518 24.9032 1.2087C26.2493 1.25785 27.2996 2.35257 27.2489 3.65327C27.2009 4.886 26.1783 5.87408 24.9032 5.9206C24.3796 5.93211 23.8686 5.76586 23.4588 5.44957V7.68031H22.1706L22.1602 1.33574ZM24.7027 2.31074C24.0116 2.31074 23.4489 2.77498 23.4489 3.27947V3.84356C23.4489 4.38099 24.0048 4.82536 24.7095 4.82536C25.4283 4.86091 26.0405 4.32714 26.0776 3.63288C26.1147 2.93861 25.5624 2.34682 24.8436 2.31074C24.7993 2.30865 24.7544 2.30865 24.7095 2.31074H24.7027Z" fill="black"/>
<path d="M29.7231 3.12591C30.5697 3.0156 30.8218 2.8985 30.8218 2.6716C30.8218 2.3778 30.5008 2.20057 30.0028 2.20057C29.4668 2.15823 28.9787 2.50013 28.8524 3.00567L27.6367 2.76152C27.8095 1.85344 28.7767 1.2057 29.9684 1.2057C31.3161 1.2057 32.1518 1.87331 32.1518 2.95548V5.79057H30.9946V5.29653H30.9774C30.5849 5.72365 30.0091 5.95054 29.4193 5.91081C28.3999 5.91081 27.6915 5.37286 27.6915 4.57508C27.6915 3.77678 28.272 3.31934 29.7231 3.12591ZM30.9257 3.59642H30.9085C30.7942 3.75692 30.5629 3.85049 29.9235 3.95714C29.1672 4.09411 28.8874 4.23788 28.8874 4.49823C28.8874 4.75858 29.1118 4.88562 29.5988 4.88562C30.3416 4.88562 30.9153 4.55155 30.9153 4.12757L30.9257 3.59642Z" fill="black"/>
<path d="M34.4833 5.53986L32.3516 1.33559H33.7719L35.1708 4.24752H35.1916L36.5733 1.33559H38.0004L34.808 7.68015H33.3882L34.4833 5.53986Z" fill="black"/>
</svg>
