<svg width="24" height="24" viewBox="0 0 24 24" fill="none" xmlns="http://www.w3.org/2000/svg">
<path d="M16.5788 12.2965C16.561 10.1722 18.3174 9.13969 18.3946 9.09221C17.3977 7.64434 15.8548 7.44259 15.3149 7.42478C14.0213 7.2883 12.7633 8.20213 12.1046 8.20213C11.4341 8.20213 10.4134 7.44259 9.3216 7.46039C7.91527 7.48412 6.592 8.29707 5.874 9.56693C4.38459 12.1482 5.49423 15.9459 6.9243 18.0346C7.6423 19.0553 8.47305 20.2005 9.57083 20.159C10.6389 20.1174 11.0424 19.4766 12.3301 19.4766C13.6118 19.4766 13.9857 20.159 15.1012 20.1352C16.2524 20.1174 16.9704 19.1087 17.6647 18.0762C18.4895 16.9072 18.8218 15.7501 18.8337 15.6907C18.804 15.6789 16.6025 14.8362 16.5788 12.2965Z" fill="#2948FF"/>
<path d="M14.4726 6.0541C15.0482 5.3361 15.4398 4.35701 15.333 3.36011C14.5023 3.39571 13.4579 3.9357 12.8586 4.64183C12.3305 5.26489 11.8558 6.27959 11.9744 7.23495C12.912 7.30616 13.8733 6.76024 14.4726 6.0541Z" fill="#2948FF"/>
</svg>
