<svg width="24" height="24" viewBox="0 0 24 24" fill="none" xmlns="http://www.w3.org/2000/svg">
<path d="M16.5788 12.2964C16.561 10.1721 18.3174 9.13956 18.3946 9.09209C17.3977 7.64422 15.8548 7.44246 15.3149 7.42466C14.0213 7.28818 12.7633 8.20201 12.1046 8.20201C11.4341 8.20201 10.4134 7.44246 9.3216 7.46027C7.91527 7.484 6.592 8.29695 5.874 9.56681C4.38459 12.1481 5.49423 15.9458 6.9243 18.0345C7.6423 19.0551 8.47305 20.2004 9.57083 20.1588C10.6389 20.1173 11.0424 19.4764 12.3301 19.4764C13.6118 19.4764 13.9857 20.1588 15.1012 20.1351C16.2524 20.1173 16.9704 19.1085 17.6647 18.076C18.4895 16.9071 18.8218 15.7499 18.8337 15.6906C18.804 15.6787 16.6025 14.8361 16.5788 12.2964Z" fill="white"/>
<path d="M14.4726 6.054C15.0482 5.33599 15.4398 4.3569 15.333 3.36C14.5023 3.3956 13.4579 3.93559 12.8586 4.64173C12.3305 5.26479 11.8558 6.27949 11.9744 7.23485C12.912 7.30605 13.8733 6.76013 14.4726 6.054Z" fill="white"/>
</svg>
