<svg width="18" height="13" viewBox="0 0 18 13" fill="none" xmlns="http://www.w3.org/2000/svg">
<path d="M6.33597 5.1359C7.39197 5.8399 7.91997 6.8319 7.91997 8.11189C7.91997 9.35989 7.53597 10.3519 6.76797 11.0879C6.03197 11.8239 5.08797 12.1919 3.93597 12.1919C2.81597 12.1919 1.87197 11.8399 1.10397 11.1359C0.367973 10.4319 -2.72393e-05 9.5199 -2.72393e-05 8.3999C-2.72393e-05 7.2799 0.351973 6.1759 1.05597 5.0879L4.55997 -0.000103951H8.49597L6.33597 5.1359ZM15.216 5.1359C16.272 5.8399 16.8 6.8319 16.8 8.11189C16.8 9.35989 16.416 10.3519 15.648 11.0879C14.912 11.8239 13.968 12.1919 12.816 12.1919C11.696 12.1919 10.752 11.8399 9.98397 11.1359C9.24797 10.4319 8.87997 9.5199 8.87997 8.3999C8.87997 7.2799 9.23197 6.1759 9.93597 5.0879L13.44 -0.000103951H17.376L15.216 5.1359Z" fill="#0B132A"/>
</svg>
